<svg width="650" height="650" viewBox="0 0 650 650" fill="none" xmlns="http://www.w3.org/2000/svg">
<path d="M582.556 10.5411C591.14 18.5398 595.838 30.7254 596.271 42.1429C596.286 44.0789 596.289 46.015 596.283 47.9511C596.299 48.8579 596.316 49.7648 596.333 50.6991C596.337 56.7795 595.758 62.5825 594.854 68.59C592.697 83.308 592.437 97.8394 592.481 112.686C592.488 116.296 592.477 119.907 592.469 123.518C592.455 130.557 592.458 137.595 592.467 144.634C592.474 150.364 592.475 156.095 592.471 161.826C592.471 162.647 592.47 163.469 592.47 164.315C592.469 165.985 592.468 167.655 592.467 169.325C592.458 184.915 592.468 200.506 592.485 216.096C592.498 229.417 592.496 242.737 592.482 256.057C592.465 271.597 592.459 287.138 592.468 302.678C592.469 304.341 592.47 306.005 592.471 307.668C592.472 308.895 592.472 308.895 592.473 310.147C592.475 315.857 592.471 321.567 592.464 327.277C592.455 334.256 592.458 341.234 592.474 348.212C592.482 351.759 592.485 355.306 592.475 358.853C592.439 375.202 593.319 391.029 595.643 407.223C596.32 412.448 596.471 417.662 596.411 422.926C596.403 423.961 596.394 424.996 596.385 426.063C596.072 439.861 591.934 451.377 581.879 461.448C570.2 472.024 570.2 472.024 561.618 471.994C559.588 471.998 559.589 471.998 557.518 472.002C556.014 471.99 554.511 471.977 553.007 471.964C551.404 471.962 549.801 471.961 548.199 471.961C544.694 471.958 541.19 471.946 537.686 471.926C531.916 471.895 526.145 471.885 520.375 471.877C511.871 471.863 503.367 471.84 494.864 471.81C472.746 471.732 450.628 471.702 428.511 471.672C424.728 471.667 420.946 471.661 417.164 471.655C375.149 471.592 333.136 471.716 291.121 471.921C283.841 471.956 276.561 471.99 269.281 472.024C261.237 472.061 253.194 472.099 245.15 472.137C244.357 472.141 243.563 472.145 242.746 472.148C223.613 472.239 204.481 472.339 185.349 472.453C172.439 472.53 159.529 472.596 146.619 472.653C139.552 472.684 132.486 472.72 125.42 472.771C118.903 472.818 112.386 472.85 105.869 472.872C103.5 472.882 101.131 472.898 98.763 472.919C95.5397 472.947 92.3169 472.957 89.0934 472.962C88.1683 472.974 87.2432 472.987 86.29 473C74.2443 472.966 65.0229 468.184 56.3229 460.273C47.5435 451.232 45.3727 438.781 45.4947 426.739C45.4941 425.741 45.4936 424.742 45.4931 423.714C45.4955 421.619 45.5054 419.524 45.5225 417.428C45.5467 414.256 45.5436 411.084 45.5368 407.911C45.5425 405.86 45.5498 403.809 45.5588 401.758C45.5579 400.827 45.5569 399.896 45.556 398.937C45.6071 394.211 45.9803 389.769 46.8951 385.125C47.9962 378.864 48.2078 372.815 48.1807 366.475C48.1839 365.304 48.1871 364.132 48.1904 362.926C48.1972 359.71 48.1948 356.494 48.1884 353.279C48.1838 349.797 48.1909 346.314 48.1966 342.832C48.2057 336.022 48.2037 329.212 48.1978 322.402C48.1931 316.859 48.1925 311.316 48.1948 305.774C48.1951 304.982 48.1954 304.191 48.1957 303.376C48.1964 301.768 48.197 300.159 48.1977 298.551C48.2036 283.492 48.1968 268.433 48.1858 253.373C48.1766 240.49 48.1782 227.608 48.1877 214.725C48.1987 199.729 48.203 184.733 48.1967 169.737C48.196 168.133 48.1954 166.528 48.1948 164.924C48.1943 163.74 48.1943 163.74 48.1938 162.533C48.1921 157.009 48.195 151.486 48.1998 145.963C48.2056 139.213 48.204 132.463 48.1931 125.713C48.1878 122.278 48.1855 118.843 48.1924 115.408C48.2129 101.899 48.0118 88.6001 46.3373 75.1794C45.5452 68.6645 45.5226 62.1225 45.5435 55.5695C45.5468 53.4173 45.5223 51.2664 45.4967 49.1143C45.4353 36.2319 47.4397 25.6884 55.1042 14.9753C55.8238 13.9242 56.5435 12.8731 57.285 11.7901C62.9033 5.77299 70.3873 1.76399 78.7392 1.19963C82.7713 1.07354 86.7931 1.10369 90.8263 1.15713C92.6622 1.15551 94.4981 1.1508 96.3339 1.14329C101.353 1.13158 106.371 1.16327 111.389 1.20228C116.813 1.23671 122.237 1.23043 127.66 1.2291C137.055 1.23225 146.449 1.26075 155.844 1.30637C169.458 1.37225 183.072 1.39725 196.686 1.4121C218.817 1.43715 240.948 1.49195 263.079 1.56694C284.502 1.63944 305.925 1.70321 327.347 1.75138C328.664 1.75435 329.981 1.75731 331.338 1.76037C345.748 1.79253 360.157 1.82161 374.566 1.84766C375.836 1.84996 377.107 1.85226 378.415 1.85464C383.497 1.86383 388.579 1.87302 393.661 1.88183C408.48 1.90766 423.299 1.94279 438.118 1.9952C447.432 2.02797 456.746 2.05408 466.06 2.07519C471.418 2.08769 476.776 2.1036 482.134 2.12895C502.378 2.22299 522.438 2.19406 542.615 0.419421C559.013 -0.913818 569.467 0.540224 582.556 10.5411Z" fill="#192738"/>
<rect x="60.6532" y="13" width="94.0124" height="88" rx="31" fill="#74E95F"/>
<path d="M87.9471 37H128.383V77H87.9471V37Z" fill="#142637"/>
<rect x="158.709" y="112" width="94.0124" height="88" rx="31" fill="#74E95F"/>
<path d="M186.003 136H226.439V176H186.003V136Z" fill="#142637"/>
<rect x="154.666" y="46" width="27.2939" height="21" fill="#74E95F"/>
<rect x="134.448" y="145" width="27.2939" height="21" fill="#74E95F"/>
<rect x="97.045" y="128" width="27" height="21.2286" transform="rotate(-90 97.045 128)" fill="#74E95F"/>
<ellipse cx="206.221" cy="57" rx="31.3375" ry="31" fill="#74E95F"/>
<ellipse cx="206.221" cy="57" rx="15.1633" ry="15" fill="#082336"/>
<ellipse cx="108.165" cy="156" rx="31.3375" ry="31" fill="#74E95F"/>
<ellipse cx="108.165" cy="156" rx="15.1633" ry="15" fill="#082336"/>
<rect width="94.0124" height="88" rx="31" transform="matrix(-1 0 0 1 585.303 14)" fill="#74E95F"/>
<path d="M558.009 38H517.574V78H558.009V38Z" fill="#142637"/>
<rect width="94.0124" height="88" rx="31" transform="matrix(-1 0 0 1 487.247 113)" fill="#74E95F"/>
<path d="M459.953 137H419.518V177H459.953V137Z" fill="#142637"/>
<rect width="27.2939" height="21" transform="matrix(-1 0 0 1 491.291 47)" fill="#74E95F"/>
<rect width="27.2939" height="21" transform="matrix(-1 0 0 1 511.509 146)" fill="#74E95F"/>
<rect width="27" height="21.2286" transform="matrix(0 -1 -1 0 548.911 129)" fill="#74E95F"/>
<ellipse cx="31.3375" cy="31" rx="31.3375" ry="31" transform="matrix(-1 0 0 1 471.073 27)" fill="#74E95F"/>
<ellipse cx="15.1633" cy="15" rx="15.1633" ry="15" transform="matrix(-1 0 0 1 454.899 43)" fill="#082336"/>
<ellipse cx="31.3375" cy="31" rx="31.3375" ry="31" transform="matrix(-1 0 0 1 569.129 126)" fill="#74E95F"/>
<ellipse cx="15.1633" cy="15" rx="15.1633" ry="15" transform="matrix(-1 0 0 1 552.955 142)" fill="#082336"/>
<rect x="585.303" y="461" width="94.0124" height="88" rx="31" transform="rotate(180 585.303 461)" fill="#74E95F"/>
<path d="M558.009 437H517.574V397H558.009V437Z" fill="#142637"/>
<rect x="487.247" y="362" width="94.0124" height="88" rx="31" transform="rotate(180 487.247 362)" fill="#74E95F"/>
<path d="M459.953 338H419.518V298H459.953V338Z" fill="#142637"/>
<rect x="491.291" y="428" width="27.2939" height="21" transform="rotate(180 491.291 428)" fill="#74E95F"/>
<rect x="511.509" y="329" width="27.2939" height="21" transform="rotate(180 511.509 329)" fill="#74E95F"/>
<rect x="548.911" y="346" width="27" height="21.2286" transform="rotate(90 548.911 346)" fill="#74E95F"/>
<ellipse cx="439.736" cy="417" rx="31.3375" ry="31" transform="rotate(180 439.736 417)" fill="#74E95F"/>
<ellipse cx="439.736" cy="417" rx="15.1633" ry="15" transform="rotate(180 439.736 417)" fill="#082336"/>
<ellipse cx="537.792" cy="318" rx="31.3375" ry="31" transform="rotate(180 537.792 318)" fill="#74E95F"/>
<ellipse cx="537.792" cy="318" rx="15.1633" ry="15" transform="rotate(180 537.792 318)" fill="#082336"/>
<rect width="94.0124" height="88" rx="31" transform="matrix(1 0 0 -1 55.5988 461)" fill="#74E95F"/>
<path d="M82.8927 437H123.328V397H82.8927V437Z" fill="#142637"/>
<rect width="94.0124" height="88" rx="31" transform="matrix(1 0 0 -1 153.655 362)" fill="#74E95F"/>
<path d="M180.949 338H221.384V298H180.949V338Z" fill="#142637"/>
<rect width="27.2939" height="21" transform="matrix(1 0 0 -1 149.611 428)" fill="#74E95F"/>
<rect width="27.2939" height="21" transform="matrix(1 0 0 -1 129.393 329)" fill="#74E95F"/>
<rect width="27" height="21.2286" transform="matrix(0 1 1 0 91.9907 346)" fill="#74E95F"/>
<ellipse cx="31.3375" cy="31" rx="31.3375" ry="31" transform="matrix(1 0 0 -1 169.829 448)" fill="#74E95F"/>
<ellipse cx="15.1633" cy="15" rx="15.1633" ry="15" transform="matrix(1 0 0 -1 186.003 432)" fill="#082336"/>
<ellipse cx="31.3375" cy="31" rx="31.3375" ry="31" transform="matrix(1 0 0 -1 71.7729 349)" fill="#74E95F"/>
<ellipse cx="15.1633" cy="15" rx="15.1633" ry="15" transform="matrix(1 0 0 -1 87.9471 333)" fill="#082336"/>
<path fill-rule="evenodd" clip-rule="evenodd" d="M270.918 82V210H309.331V82C303.848 83.7742 297.238 84.81 290.124 84.81C283.01 84.81 276.401 83.7742 270.918 82Z" fill="#4DC591"/>
<path fill-rule="evenodd" clip-rule="evenodd" d="M332.582 82V210H370.995V82C365.512 83.7742 358.903 84.81 351.788 84.81C344.674 84.81 338.065 83.7742 332.582 82Z" fill="#57FED0"/>
<ellipse cx="289.619" cy="49.5" rx="27.7994" ry="27.5" fill="#4DC591"/>
<ellipse cx="353.305" cy="49.5" rx="27.7994" ry="27.5" fill="#57FED0"/>
<path fill-rule="evenodd" clip-rule="evenodd" d="M372.006 399V271H333.593V399C339.076 397.226 345.685 396.19 352.799 396.19C359.913 396.19 366.523 397.226 372.006 399Z" fill="#4DC591"/>
<path fill-rule="evenodd" clip-rule="evenodd" d="M310.342 399V271H271.928V399C277.412 397.226 284.021 396.19 291.135 396.19C298.249 396.19 304.859 397.226 310.342 399Z" fill="#57FED0"/>
<ellipse cx="353.305" cy="431.5" rx="27.7994" ry="27.5" transform="rotate(180 353.305 431.5)" fill="#4DC591"/>
<ellipse cx="289.619" cy="431.5" rx="27.7994" ry="27.5" transform="rotate(180 289.619 431.5)" fill="#57FED0"/>
<rect x="137.481" y="220" width="369.984" height="36" fill="#3BE5B7"/>
<ellipse cx="96.5397" cy="237.5" rx="26.7885" ry="26.5" fill="#47F8C5"/>
<ellipse cx="546.384" cy="237.5" rx="26.7885" ry="26.5" fill="#47F8C5"/>
<path d="M6.73047 512.915V502.636H50.989V512.915H35.1112V555H22.6339V512.915H6.73047ZM57.1701 555V502.636H93.6815V512.915H69.8264V523.653H91.815V533.957H69.8264V544.722H93.6815V555H57.1701ZM149.139 521.608H136.355C136.184 520.295 135.835 519.111 135.306 518.054C134.778 516.997 134.079 516.094 133.21 515.344C132.341 514.594 131.309 514.023 130.116 513.631C128.94 513.222 127.636 513.017 126.204 513.017C123.664 513.017 121.474 513.639 119.633 514.884C117.809 516.128 116.403 517.926 115.414 520.278C114.443 522.631 113.957 525.477 113.957 528.818C113.957 532.295 114.451 535.21 115.44 537.562C116.446 539.898 117.852 541.662 119.659 542.855C121.483 544.031 123.639 544.619 126.127 544.619C127.525 544.619 128.795 544.44 129.937 544.082C131.096 543.724 132.11 543.205 132.98 542.523C133.866 541.824 134.591 540.98 135.153 539.991C135.733 538.986 136.133 537.852 136.355 536.591L149.139 536.668C148.917 538.986 148.244 541.27 147.119 543.52C146.011 545.77 144.485 547.824 142.542 549.682C140.599 551.523 138.23 552.989 135.434 554.08C132.656 555.17 129.468 555.716 125.872 555.716C121.133 555.716 116.889 554.676 113.139 552.597C109.406 550.5 106.457 547.449 104.292 543.443C102.127 539.437 101.045 534.562 101.045 528.818C101.045 523.057 102.145 518.173 104.343 514.168C106.542 510.162 109.517 507.119 113.267 505.04C117.017 502.96 121.218 501.92 125.872 501.92C129.042 501.92 131.974 502.364 134.667 503.25C137.36 504.119 139.73 505.398 141.775 507.085C143.821 508.756 145.483 510.81 146.761 513.247C148.039 515.685 148.832 518.472 149.139 521.608ZM156.381 555V502.636H169.037V523.653H189.671V502.636H202.301V555H189.671V533.957H169.037V555H156.381ZM254.013 518.335C253.843 516.46 253.084 515.003 251.738 513.963C250.408 512.906 248.507 512.378 246.036 512.378C244.4 512.378 243.036 512.591 241.945 513.017C240.854 513.443 240.036 514.031 239.49 514.781C238.945 515.514 238.664 516.358 238.647 517.312C238.613 518.097 238.766 518.787 239.107 519.384C239.465 519.98 239.976 520.509 240.641 520.969C241.323 521.412 242.141 521.804 243.096 522.145C244.05 522.486 245.124 522.784 246.317 523.04L250.817 524.062C253.408 524.625 255.692 525.375 257.669 526.312C259.664 527.25 261.334 528.366 262.681 529.662C264.044 530.957 265.076 532.449 265.775 534.136C266.473 535.824 266.831 537.716 266.848 539.812C266.831 543.119 265.996 545.957 264.343 548.327C262.689 550.696 260.311 552.511 257.209 553.773C254.124 555.034 250.4 555.665 246.036 555.665C241.655 555.665 237.837 555.009 234.581 553.696C231.326 552.384 228.794 550.389 226.988 547.713C225.181 545.037 224.252 541.653 224.201 537.562H236.32C236.422 539.25 236.874 540.656 237.675 541.781C238.476 542.906 239.576 543.759 240.973 544.338C242.388 544.918 244.025 545.207 245.882 545.207C247.587 545.207 249.036 544.977 250.229 544.517C251.439 544.057 252.368 543.418 253.016 542.599C253.664 541.781 253.996 540.844 254.013 539.787C253.996 538.798 253.689 537.955 253.093 537.256C252.496 536.54 251.576 535.926 250.331 535.415C249.104 534.886 247.536 534.401 245.627 533.957L240.155 532.679C235.621 531.639 232.05 529.96 229.442 527.642C226.834 525.307 225.539 522.153 225.556 518.182C225.539 514.943 226.408 512.105 228.164 509.668C229.919 507.23 232.348 505.33 235.451 503.966C238.553 502.602 242.09 501.92 246.061 501.92C250.118 501.92 253.638 502.611 256.621 503.991C259.621 505.355 261.948 507.273 263.601 509.744C265.255 512.216 266.098 515.08 266.132 518.335H254.013ZM322.664 528.818C322.664 534.58 321.556 539.463 319.34 543.469C317.124 547.474 314.124 550.517 310.34 552.597C306.573 554.676 302.346 555.716 297.658 555.716C292.953 555.716 288.718 554.668 284.951 552.571C281.184 550.474 278.192 547.432 275.976 543.443C273.777 539.437 272.678 534.562 272.678 528.818C272.678 523.057 273.777 518.173 275.976 514.168C278.192 510.162 281.184 507.119 284.951 505.04C288.718 502.96 292.953 501.92 297.658 501.92C302.346 501.92 306.573 502.96 310.34 505.04C314.124 507.119 317.124 510.162 319.34 514.168C321.556 518.173 322.664 523.057 322.664 528.818ZM309.726 528.818C309.726 525.409 309.24 522.528 308.269 520.176C307.314 517.824 305.934 516.043 304.127 514.832C302.337 513.622 300.181 513.017 297.658 513.017C295.152 513.017 292.996 513.622 291.189 514.832C289.382 516.043 287.993 517.824 287.022 520.176C286.067 522.528 285.59 525.409 285.59 528.818C285.59 532.227 286.067 535.108 287.022 537.46C287.993 539.812 289.382 541.594 291.189 542.804C292.996 544.014 295.152 544.619 297.658 544.619C300.181 544.619 302.337 544.014 304.127 542.804C305.934 541.594 307.314 539.812 308.269 537.46C309.24 535.108 309.726 532.227 309.726 528.818ZM330.053 555V502.636H342.709V544.722H364.493V555H330.053ZM402.724 502.636H415.355V536.412C415.355 540.315 414.426 543.716 412.568 546.614C410.71 549.494 408.119 551.727 404.795 553.312C401.471 554.881 397.61 555.665 393.213 555.665C388.764 555.665 384.877 554.881 381.554 553.312C378.23 551.727 375.647 549.494 373.806 546.614C371.966 543.716 371.045 540.315 371.045 536.412V502.636H383.701V535.312C383.701 537.119 384.093 538.73 384.877 540.145C385.679 541.56 386.795 542.668 388.227 543.469C389.659 544.27 391.321 544.67 393.213 544.67C395.105 544.67 396.758 544.27 398.173 543.469C399.605 542.668 400.721 541.56 401.522 540.145C402.324 538.73 402.724 537.119 402.724 535.312V502.636ZM421.574 512.915V502.636H465.833V512.915H449.955V555H437.478V512.915H421.574ZM484.67 502.636V555H472.014V502.636H484.67ZM542.039 528.818C542.039 534.58 540.931 539.463 538.715 543.469C536.499 547.474 533.499 550.517 529.715 552.597C525.948 554.676 521.721 555.716 517.033 555.716C512.328 555.716 508.093 554.668 504.326 552.571C500.559 550.474 497.567 547.432 495.351 543.443C493.152 539.437 492.053 534.562 492.053 528.818C492.053 523.057 493.152 518.173 495.351 514.168C497.567 510.162 500.559 507.119 504.326 505.04C508.093 502.96 512.328 501.92 517.033 501.92C521.721 501.92 525.948 502.96 529.715 505.04C533.499 507.119 536.499 510.162 538.715 514.168C540.931 518.173 542.039 523.057 542.039 528.818ZM529.101 528.818C529.101 525.409 528.615 522.528 527.644 520.176C526.689 517.824 525.309 516.043 523.502 514.832C521.712 513.622 519.556 513.017 517.033 513.017C514.527 513.017 512.371 513.622 510.564 514.832C508.757 516.043 507.368 517.824 506.397 520.176C505.442 522.528 504.965 525.409 504.965 528.818C504.965 532.227 505.442 535.108 506.397 537.46C507.368 539.812 508.757 541.594 510.564 542.804C512.371 544.014 514.527 544.619 517.033 544.619C519.556 544.619 521.712 544.014 523.502 542.804C525.309 541.594 526.689 539.812 527.644 537.46C528.615 535.108 529.101 532.227 529.101 528.818ZM593.993 502.636V555H583.255L562.417 524.778H562.084V555H549.428V502.636H560.32L580.928 532.807H581.363V502.636H593.993ZM630.255 518.335C630.085 516.46 629.326 515.003 627.98 513.963C626.65 512.906 624.75 512.378 622.278 512.378C620.642 512.378 619.278 512.591 618.187 513.017C617.096 513.443 616.278 514.031 615.733 514.781C615.187 515.514 614.906 516.358 614.889 517.312C614.855 518.097 615.008 518.787 615.349 519.384C615.707 519.98 616.218 520.509 616.883 520.969C617.565 521.412 618.383 521.804 619.338 522.145C620.292 522.486 621.366 522.784 622.559 523.04L627.059 524.062C629.65 524.625 631.934 525.375 633.912 526.312C635.906 527.25 637.576 528.366 638.923 529.662C640.287 530.957 641.318 532.449 642.017 534.136C642.716 535.824 643.074 537.716 643.091 539.812C643.074 543.119 642.238 545.957 640.585 548.327C638.931 550.696 636.554 552.511 633.451 553.773C630.366 555.034 626.642 555.665 622.278 555.665C617.897 555.665 614.079 555.009 610.824 553.696C607.568 552.384 605.037 550.389 603.23 547.713C601.423 545.037 600.494 541.653 600.443 537.562H612.562C612.664 539.25 613.116 540.656 613.917 541.781C614.718 542.906 615.818 543.759 617.216 544.338C618.63 544.918 620.267 545.207 622.125 545.207C623.829 545.207 625.278 544.977 626.471 544.517C627.681 544.057 628.61 543.418 629.258 542.599C629.906 541.781 630.238 540.844 630.255 539.787C630.238 538.798 629.931 537.955 629.335 537.256C628.738 536.54 627.818 535.926 626.574 535.415C625.346 534.886 623.778 534.401 621.869 533.957L616.397 532.679C611.863 531.639 608.292 529.96 605.684 527.642C603.076 525.307 601.781 522.153 601.798 518.182C601.781 514.943 602.65 512.105 604.406 509.668C606.162 507.23 608.591 505.33 611.693 503.966C614.795 502.602 618.332 501.92 622.304 501.92C626.36 501.92 629.88 502.611 632.863 503.991C635.863 505.355 638.19 507.273 639.843 509.744C641.497 512.216 642.341 515.08 642.375 518.335H630.255ZM107.127 589.636V642H94.4709V589.636H107.127ZM159.638 589.636V642H148.899L128.061 611.778H127.729V642H115.072V589.636H125.964L146.572 619.807H147.007V589.636H159.638ZM165.883 599.915V589.636H210.141V599.915H194.263V642H181.786V599.915H165.883ZM216.322 642V589.636H252.834V599.915H228.979V610.653H250.967V620.957H228.979V631.722H252.834V642H216.322ZM295.124 606.741C294.834 605.668 294.408 604.722 293.845 603.903C293.283 603.068 292.592 602.361 291.774 601.781C290.956 601.202 290.018 600.767 288.962 600.477C287.905 600.17 286.746 600.017 285.484 600.017C282.945 600.017 280.746 600.631 278.888 601.858C277.047 603.085 275.624 604.875 274.618 607.227C273.612 609.562 273.109 612.401 273.109 615.741C273.109 619.099 273.595 621.963 274.567 624.332C275.538 626.702 276.945 628.509 278.786 629.753C280.626 630.997 282.859 631.619 285.484 631.619C287.803 631.619 289.763 631.244 291.365 630.494C292.984 629.727 294.212 628.645 295.047 627.247C295.882 625.849 296.3 624.205 296.3 622.312L298.652 622.594H285.919V613.364H308.496V620.293C308.496 624.98 307.499 628.994 305.504 632.335C303.527 635.676 300.8 638.241 297.322 640.031C293.862 641.821 289.882 642.716 285.382 642.716C280.388 642.716 275.999 641.634 272.214 639.469C268.43 637.304 265.482 634.219 263.368 630.213C261.254 626.19 260.197 621.418 260.197 615.895C260.197 611.599 260.837 607.79 262.115 604.466C263.393 601.125 265.175 598.295 267.459 595.977C269.76 593.659 272.419 591.903 275.436 590.71C278.47 589.517 281.734 588.92 285.229 588.92C288.263 588.92 291.084 589.355 293.692 590.224C296.317 591.094 298.635 592.321 300.646 593.906C302.675 595.491 304.32 597.375 305.581 599.557C306.842 601.739 307.626 604.134 307.933 606.741H295.124ZM315.955 642V589.636H337.586C341.506 589.636 344.89 590.344 347.737 591.759C350.6 593.156 352.808 595.168 354.359 597.793C355.91 600.401 356.685 603.494 356.685 607.074C356.685 610.705 355.893 613.79 354.308 616.33C352.722 618.852 350.472 620.778 347.558 622.108C344.643 623.42 341.191 624.077 337.202 624.077H323.523V614.105H334.85C336.759 614.105 338.353 613.858 339.631 613.364C340.927 612.852 341.907 612.085 342.572 611.062C343.237 610.023 343.569 608.693 343.569 607.074C343.569 605.455 343.237 604.116 342.572 603.06C341.907 601.986 340.927 601.185 339.631 600.656C338.336 600.111 336.742 599.838 334.85 599.838H328.612V642H315.955ZM345.435 618.068L358.475 642H344.668L331.884 618.068H345.435ZM374.954 642H361.352L379.019 589.636H395.869L413.536 642H399.934L387.636 602.83H387.227L374.954 642ZM373.138 621.392H401.57V631.006H373.138V621.392ZM410.922 599.915V589.636H455.18V599.915H439.303V642H426.825V599.915H410.922ZM508.394 615.818C508.394 621.58 507.286 626.463 505.07 630.469C502.854 634.474 499.854 637.517 496.07 639.597C492.303 641.676 488.076 642.716 483.388 642.716C478.684 642.716 474.448 641.668 470.681 639.571C466.914 637.474 463.923 634.432 461.707 630.443C459.508 626.437 458.408 621.562 458.408 615.818C458.408 610.057 459.508 605.173 461.707 601.168C463.923 597.162 466.914 594.119 470.681 592.04C474.448 589.96 478.684 588.92 483.388 588.92C488.076 588.92 492.303 589.96 496.07 592.04C499.854 594.119 502.854 597.162 505.07 601.168C507.286 605.173 508.394 610.057 508.394 615.818ZM495.457 615.818C495.457 612.409 494.971 609.528 493.999 607.176C493.045 604.824 491.664 603.043 489.857 601.832C488.067 600.622 485.911 600.017 483.388 600.017C480.883 600.017 478.727 600.622 476.92 601.832C475.113 603.043 473.724 604.824 472.752 607.176C471.798 609.528 471.32 612.409 471.32 615.818C471.32 619.227 471.798 622.108 472.752 624.46C473.724 626.812 475.113 628.594 476.92 629.804C478.727 631.014 480.883 631.619 483.388 631.619C485.911 631.619 488.067 631.014 489.857 629.804C491.664 628.594 493.045 626.812 493.999 624.46C494.971 622.108 495.457 619.227 495.457 615.818ZM515.783 642V589.636H537.414C541.335 589.636 544.718 590.344 547.565 591.759C550.428 593.156 552.636 595.168 554.187 597.793C555.738 600.401 556.513 603.494 556.513 607.074C556.513 610.705 555.721 613.79 554.136 616.33C552.55 618.852 550.3 620.778 547.386 622.108C544.471 623.42 541.019 624.077 537.031 624.077H523.352V614.105H534.678C536.587 614.105 538.181 613.858 539.46 613.364C540.755 612.852 541.735 612.085 542.4 611.062C543.065 610.023 543.397 608.693 543.397 607.074C543.397 605.455 543.065 604.116 542.4 603.06C541.735 601.986 540.755 601.185 539.46 600.656C538.164 600.111 536.57 599.838 534.678 599.838H528.44V642H515.783ZM545.263 618.068L558.303 642H544.496L531.712 618.068H545.263Z" fill="#192738"/>
<rect x="5.05444" y="610" width="70.7621" height="8.75" fill="#4DC591"/>
<rect x="579.238" y="610" width="70.7621" height="8.75" fill="#4DC591"/>
</svg>
