<svg width="108" height="91" viewBox="0 0 108 91" fill="none" xmlns="http://www.w3.org/2000/svg">
<rect width="107.472" height="90.018" rx="14" fill="#4DC591"/>
<path d="M19.5774 50.3338C19.549 50.0473 19.4271 49.8248 19.2116 49.6662C18.9962 49.5076 18.7038 49.4282 18.3345 49.4282C18.0836 49.4282 17.8717 49.4638 17.6989 49.5348C17.526 49.6034 17.3935 49.6993 17.3011 49.8224C17.2112 49.9455 17.1662 50.0852 17.1662 50.2415C17.1615 50.3717 17.1887 50.4853 17.2479 50.5824C17.3094 50.6794 17.3935 50.7635 17.5 50.8345C17.6065 50.9031 17.7296 50.9635 17.8693 51.0156C18.009 51.0653 18.1581 51.1079 18.3168 51.1434L18.9702 51.2997C19.2874 51.3707 19.5786 51.4654 19.8438 51.5838C20.1089 51.7022 20.3385 51.8478 20.5327 52.0206C20.7268 52.1934 20.8771 52.397 20.9837 52.6314C21.0926 52.8657 21.1482 53.1344 21.1506 53.4375C21.1482 53.8826 21.0346 54.2684 20.8097 54.5951C20.5871 54.9195 20.2652 55.1716 19.8438 55.3515C19.4247 55.5291 18.9193 55.6179 18.3274 55.6179C17.7403 55.6179 17.2289 55.5279 16.7933 55.348C16.3601 55.1681 16.0215 54.9017 15.7777 54.549C15.5362 54.1939 15.4096 53.7547 15.3977 53.2315H16.8857C16.9022 53.4754 16.9721 53.679 17.0952 53.8423C17.2206 54.0033 17.3875 54.1252 17.5959 54.2081C17.8066 54.2886 18.0445 54.3288 18.3097 54.3288C18.5701 54.3288 18.7962 54.2909 18.9879 54.2152C19.1821 54.1394 19.3324 54.0341 19.4389 53.8991C19.5455 53.7642 19.5987 53.6091 19.5987 53.4339C19.5987 53.2706 19.5502 53.1333 19.4531 53.022C19.3584 52.9107 19.2188 52.816 19.0341 52.7379C18.8518 52.6598 18.6281 52.5888 18.3629 52.5248L17.571 52.326C16.9579 52.1768 16.4737 51.9436 16.1186 51.6264C15.7635 51.3092 15.5871 50.8818 15.5895 50.3444C15.5871 49.9041 15.7043 49.5194 15.9411 49.1903C16.1802 48.8612 16.508 48.6044 16.9247 48.4197C17.3414 48.2351 17.8149 48.1427 18.3452 48.1427C18.8849 48.1427 19.3561 48.2351 19.7585 48.4197C20.1634 48.6044 20.4782 48.8612 20.7031 49.1903C20.928 49.5194 21.044 49.9005 21.0511 50.3338H19.5774ZM24.6422 55.6214C24.0811 55.6214 23.5982 55.5078 23.1934 55.2805C22.7909 55.0509 22.4808 54.7265 22.263 54.3075C22.0452 53.8861 21.9363 53.3878 21.9363 52.8125C21.9363 52.2514 22.0452 51.759 22.263 51.3352C22.4808 50.9114 22.7873 50.5812 23.1827 50.3444C23.5804 50.1077 24.0468 49.9893 24.5819 49.9893C24.9417 49.9893 25.2767 50.0473 25.5868 50.1633C25.8993 50.277 26.1716 50.4486 26.4036 50.6782C26.638 50.9079 26.8203 51.1967 26.9505 51.5447C27.0807 51.8904 27.1458 52.2952 27.1458 52.7592V53.1747H22.54V52.2372H25.7218C25.7218 52.0194 25.6744 51.8264 25.5797 51.6584C25.485 51.4903 25.3536 51.3589 25.1855 51.2642C25.0198 51.1671 24.8269 51.1186 24.6067 51.1186C24.3771 51.1186 24.1735 51.1719 23.9959 51.2784C23.8207 51.3826 23.6834 51.5234 23.584 51.701C23.4846 51.8762 23.4337 52.0715 23.4313 52.2869V53.1782C23.4313 53.4481 23.481 53.6813 23.5804 53.8778C23.6822 54.0743 23.8255 54.2258 24.0101 54.3324C24.1948 54.4389 24.4138 54.4922 24.6671 54.4922C24.8352 54.4922 24.9891 54.4685 25.1287 54.4211C25.2684 54.3738 25.388 54.3028 25.4874 54.2081C25.5868 54.1134 25.6626 53.9974 25.7147 53.8601L27.1138 53.9524C27.0428 54.2886 26.8972 54.5821 26.677 54.8331C26.4592 55.0817 26.1775 55.2758 25.8319 55.4155C25.4886 55.5528 25.092 55.6214 24.6422 55.6214ZM28.133 55.5149V50.0603H29.5996V51.0121H29.6564C29.7559 50.6735 29.9228 50.4178 30.1571 50.245C30.3915 50.0698 30.6614 49.9822 30.9668 49.9822C31.0426 49.9822 31.1242 49.987 31.2118 49.9964C31.2994 50.0059 31.3764 50.0189 31.4426 50.0355V51.3778C31.3716 51.3565 31.2734 51.3376 31.1479 51.321C31.0224 51.3044 30.9076 51.2961 30.8034 51.2961C30.5809 51.2961 30.382 51.3447 30.2069 51.4417C30.034 51.5364 29.8967 51.669 29.7949 51.8395C29.6955 52.0099 29.6458 52.2064 29.6458 52.429V55.5149H28.133ZM37.476 50.0603L35.5691 55.5149H33.8645L31.9576 50.0603H33.5556L34.6884 53.963H34.7452L35.8745 50.0603H37.476ZM38.2502 55.5149V50.0603H39.763V55.5149H38.2502ZM39.0101 49.3572C38.7852 49.3572 38.5923 49.2826 38.4313 49.1335C38.2727 48.982 38.1934 48.8009 38.1934 48.5902C38.1934 48.3818 38.2727 48.2031 38.4313 48.054C38.5923 47.9024 38.7852 47.8267 39.0101 47.8267C39.235 47.8267 39.4268 47.9024 39.5854 48.054C39.7464 48.2031 39.8269 48.3818 39.8269 48.5902C39.8269 48.8009 39.7464 48.982 39.5854 49.1335C39.4268 49.2826 39.235 49.3572 39.0101 49.3572ZM43.4393 55.6214C42.8806 55.6214 42.4 55.5031 41.9975 55.2663C41.5974 55.0272 41.2897 54.6958 41.0742 54.272C40.8612 53.8482 40.7546 53.3605 40.7546 52.8089C40.7546 52.2502 40.8623 51.7602 41.0778 51.3388C41.2956 50.915 41.6045 50.5847 42.0046 50.348C42.4047 50.1089 42.8806 49.9893 43.4322 49.9893C43.908 49.9893 44.3247 50.0757 44.6822 50.2486C45.0397 50.4214 45.3226 50.664 45.5309 50.9765C45.7392 51.289 45.854 51.656 45.8754 52.0774H44.4478C44.4076 51.8051 44.301 51.5862 44.1282 51.4204C43.9577 51.2523 43.734 51.1683 43.457 51.1683C43.2227 51.1683 43.0179 51.2322 42.8427 51.3601C42.6699 51.4855 42.5349 51.669 42.4379 51.9105C42.3408 52.152 42.2923 52.4443 42.2923 52.7876C42.2923 53.1356 42.3396 53.4316 42.4343 53.6754C42.5314 53.9192 42.6675 54.1051 42.8427 54.2329C43.0179 54.3608 43.2227 54.4247 43.457 54.4247C43.6299 54.4247 43.7849 54.3892 43.9222 54.3182C44.0619 54.2471 44.1767 54.1442 44.2667 54.0092C44.359 53.8719 44.4194 53.7074 44.4478 53.5156H45.8754C45.8517 53.9323 45.738 54.2992 45.5344 54.6165C45.3332 54.9313 45.055 55.1775 44.6999 55.3551C44.3448 55.5326 43.9246 55.6214 43.4393 55.6214ZM46.8439 55.5149V50.0603H48.3567V55.5149H46.8439ZM47.6039 49.3572C47.379 49.3572 47.186 49.2826 47.025 49.1335C46.8664 48.982 46.7871 48.8009 46.7871 48.5902C46.7871 48.3818 46.8664 48.2031 47.025 48.054C47.186 47.9024 47.379 47.8267 47.6039 47.8267C47.8288 47.8267 48.0205 47.9024 48.1792 48.054C48.3401 48.2031 48.4206 48.3818 48.4206 48.5902C48.4206 48.8009 48.3401 48.982 48.1792 49.1335C48.0205 49.2826 47.8288 49.3572 47.6039 49.3572ZM52.033 55.6214C51.4814 55.6214 51.0044 55.5042 50.6019 55.2699C50.2018 55.0331 49.8929 54.704 49.6751 54.2826C49.4573 53.8589 49.3484 53.3676 49.3484 52.8089C49.3484 52.2455 49.4573 51.7531 49.6751 51.3317C49.8929 50.9079 50.2018 50.5788 50.6019 50.3444C51.0044 50.1077 51.4814 49.9893 52.033 49.9893C52.5846 49.9893 53.0605 50.1077 53.4606 50.3444C53.863 50.5788 54.1732 50.9079 54.391 51.3317C54.6088 51.7531 54.7177 52.2455 54.7177 52.8089C54.7177 53.3676 54.6088 53.8589 54.391 54.2826C54.1732 54.704 53.863 55.0331 53.4606 55.2699C53.0605 55.5042 52.5846 55.6214 52.033 55.6214ZM52.0401 54.4496C52.2911 54.4496 52.5006 54.3785 52.6687 54.2365C52.8368 54.0921 52.9634 53.8956 53.0487 53.647C53.1362 53.3984 53.18 53.1155 53.18 52.7983C53.18 52.481 53.1362 52.1981 53.0487 51.9496C52.9634 51.701 52.8368 51.5045 52.6687 51.3601C52.5006 51.2156 52.2911 51.1434 52.0401 51.1434C51.7868 51.1434 51.5737 51.2156 51.4009 51.3601C51.2305 51.5045 51.1014 51.701 51.0138 51.9496C50.9286 52.1981 50.886 52.481 50.886 52.7983C50.886 53.1155 50.9286 53.3984 51.0138 53.647C51.1014 53.8956 51.2305 54.0921 51.4009 54.2365C51.5737 54.3785 51.7868 54.4496 52.0401 54.4496ZM60.0257 55.6037C59.6114 55.6037 59.2362 55.4971 58.9 55.2841C58.5662 55.0686 58.3011 54.7526 58.1046 54.3359C57.9105 53.9169 57.8134 53.4032 57.8134 52.7947C57.8134 52.1697 57.914 51.6501 58.1152 51.2358C58.3165 50.8191 58.584 50.5078 58.9178 50.3018C59.254 50.0935 59.6221 49.9893 60.0222 49.9893C60.3276 49.9893 60.5821 50.0414 60.7857 50.1456C60.9917 50.2474 61.1574 50.3752 61.2828 50.5291C61.4107 50.6806 61.5078 50.8298 61.574 50.9765H61.6202V48.2422H63.1294V55.5149H61.638V54.6413H61.574C61.503 54.7928 61.4024 54.9432 61.2722 55.0923C61.1444 55.2391 60.9775 55.361 60.7715 55.4581C60.5679 55.5551 60.3193 55.6037 60.0257 55.6037ZM60.5051 54.3998C60.749 54.3998 60.955 54.3335 61.123 54.201C61.2935 54.066 61.4237 53.8778 61.5137 53.6363C61.606 53.3949 61.6522 53.112 61.6522 52.7876C61.6522 52.4633 61.6072 52.1816 61.5172 51.9424C61.4273 51.7033 61.2971 51.5187 61.1266 51.3885C60.9561 51.2583 60.749 51.1932 60.5051 51.1932C60.2566 51.1932 60.0471 51.2606 59.8766 51.3956C59.7061 51.5305 59.5771 51.7175 59.4895 51.9567C59.4019 52.1958 59.3581 52.4728 59.3581 52.7876C59.3581 53.1049 59.4019 53.3854 59.4895 53.6292C59.5795 53.8707 59.7085 54.0601 59.8766 54.1974C60.0471 54.3324 60.2566 54.3998 60.5051 54.3998ZM66.859 55.6214C66.2979 55.6214 65.815 55.5078 65.4102 55.2805C65.0077 55.0509 64.6976 54.7265 64.4798 54.3075C64.262 53.8861 64.1531 53.3878 64.1531 52.8125C64.1531 52.2514 64.262 51.759 64.4798 51.3352C64.6976 50.9114 65.0041 50.5812 65.3995 50.3444C65.7972 50.1077 66.2636 49.9893 66.7987 49.9893C67.1585 49.9893 67.4935 50.0473 67.8036 50.1633C68.1161 50.277 68.3884 50.4486 68.6204 50.6782C68.8548 50.9079 69.0371 51.1967 69.1673 51.5447C69.2975 51.8904 69.3626 52.2952 69.3626 52.7592V53.1747H64.7567V52.2372H67.9386C67.9386 52.0194 67.8912 51.8264 67.7965 51.6584C67.7018 51.4903 67.5704 51.3589 67.4023 51.2642C67.2366 51.1671 67.0437 51.1186 66.8235 51.1186C66.5939 51.1186 66.3903 51.1719 66.2127 51.2784C66.0375 51.3826 65.9002 51.5234 65.8008 51.701C65.7013 51.8762 65.6504 52.0715 65.6481 52.2869V53.1782C65.6481 53.4481 65.6978 53.6813 65.7972 53.8778C65.899 54.0743 66.0423 54.2258 66.2269 54.3324C66.4116 54.4389 66.6306 54.4922 66.8839 54.4922C67.052 54.4922 67.2058 54.4685 67.3455 54.4211C67.4852 54.3738 67.6048 54.3028 67.7042 54.2081C67.8036 54.1134 67.8794 53.9974 67.9315 53.8601L69.3306 53.9524C69.2596 54.2886 69.114 54.5821 68.8938 54.8331C68.676 55.0817 68.3943 55.2758 68.0487 55.4155C67.7054 55.5528 67.3088 55.6214 66.859 55.6214ZM15.6037 67.5149V62.0603H17.1165V67.5149H15.6037ZM16.3636 61.3572C16.1387 61.3572 15.9458 61.2826 15.7848 61.1335C15.6262 60.982 15.5469 60.8009 15.5469 60.5902C15.5469 60.3818 15.6262 60.2031 15.7848 60.054C15.9458 59.9024 16.1387 59.8267 16.3636 59.8267C16.5885 59.8267 16.7803 59.9024 16.9389 60.054C17.0999 60.2031 17.1804 60.3818 17.1804 60.5902C17.1804 60.8009 17.0999 60.982 16.9389 61.1335C16.7803 61.2826 16.5885 61.3572 16.3636 61.3572ZM19.8411 64.3615V67.5149H18.3283V62.0603H19.7701V63.0227H19.834C19.9547 62.7055 20.1571 62.4545 20.4412 62.2699C20.7253 62.0828 21.0698 61.9893 21.4746 61.9893C21.8534 61.9893 22.1837 62.0722 22.4654 62.2379C22.7471 62.4036 22.9661 62.6404 23.1223 62.9481C23.2786 63.2535 23.3567 63.6181 23.3567 64.0419V67.5149H21.8439V64.3118C21.8463 63.978 21.7611 63.7175 21.5882 63.5305C21.4154 63.3411 21.1775 63.2464 20.8745 63.2464C20.6709 63.2464 20.4909 63.2902 20.3347 63.3778C20.1808 63.4654 20.0601 63.5933 19.9725 63.7613C19.8873 63.9271 19.8435 64.1271 19.8411 64.3615ZM27.4503 62.0603V63.1967H24.1655V62.0603H27.4503ZM24.9112 60.7535H26.424V65.8388C26.424 65.9784 26.4453 66.0873 26.4879 66.1655C26.5305 66.2412 26.5897 66.2945 26.6655 66.3253C26.7436 66.356 26.8336 66.3714 26.9354 66.3714C27.0064 66.3714 27.0774 66.3655 27.1484 66.3537C27.2195 66.3395 27.2739 66.3288 27.3118 66.3217L27.5497 67.4474C27.474 67.4711 27.3674 67.4983 27.2301 67.5291C27.0928 67.5622 26.9259 67.5824 26.7294 67.5895C26.3648 67.6037 26.0452 67.5551 25.7706 67.4439C25.4983 67.3326 25.2865 67.1598 25.1349 66.9254C24.9834 66.691 24.9089 66.3951 24.9112 66.0376V60.7535ZM30.8629 67.6214C30.3018 67.6214 29.8189 67.5078 29.4141 67.2805C29.0116 67.0509 28.7015 66.7265 28.4837 66.3075C28.2659 65.8861 28.157 65.3878 28.157 64.8125C28.157 64.2514 28.2659 63.759 28.4837 63.3352C28.7015 62.9114 29.008 62.5812 29.4034 62.3444C29.8011 62.1077 30.2675 61.9893 30.8026 61.9893C31.1624 61.9893 31.4974 62.0473 31.8075 62.1633C32.12 62.277 32.3923 62.4486 32.6243 62.6782C32.8587 62.9079 33.041 63.1967 33.1712 63.5447C33.3014 63.8904 33.3665 64.2952 33.3665 64.7592V65.1747H28.7607V64.2372H31.9425C31.9425 64.0194 31.8951 63.8264 31.8004 63.6584C31.7057 63.4903 31.5743 63.3589 31.4062 63.2642C31.2405 63.1671 31.0476 63.1186 30.8274 63.1186C30.5978 63.1186 30.3942 63.1719 30.2166 63.2784C30.0414 63.3826 29.9041 63.5234 29.8047 63.701C29.7053 63.8762 29.6544 64.0715 29.652 64.2869V65.1782C29.652 65.4481 29.7017 65.6813 29.8011 65.8778C29.9029 66.0743 30.0462 66.2258 30.2308 66.3324C30.4155 66.4389 30.6345 66.4922 30.8878 66.4922C31.0559 66.4922 31.2098 66.4685 31.3494 66.4211C31.4891 66.3738 31.6087 66.3028 31.7081 66.2081C31.8075 66.1134 31.8833 65.9974 31.9354 65.8601L33.3345 65.9524C33.2635 66.2886 33.1179 66.5821 32.8977 66.8331C32.6799 67.0817 32.3982 67.2758 32.0526 67.4155C31.7093 67.5528 31.3127 67.6214 30.8629 67.6214ZM36.8111 69.674C36.321 69.674 35.9008 69.6065 35.5504 69.4716C35.2024 69.339 34.9254 69.1579 34.7195 68.9282C34.5135 68.6986 34.3797 68.4406 34.3182 68.1541L35.7173 67.9659C35.7599 68.0748 35.8274 68.1766 35.9197 68.2713C36.0121 68.366 36.134 68.4417 36.2855 68.4986C36.4394 68.5577 36.6264 68.5873 36.8466 68.5873C37.1757 68.5873 37.4467 68.5068 37.6598 68.3459C37.8752 68.1872 37.983 67.9209 37.983 67.5469V66.549H37.919C37.8527 66.7005 37.7533 66.8437 37.6207 66.9787C37.4882 67.1136 37.3177 67.2237 37.1094 67.3089C36.901 67.3942 36.6525 67.4368 36.3636 67.4368C35.9541 67.4368 35.5812 67.3421 35.245 67.1527C34.9112 66.9609 34.6449 66.6685 34.446 66.2755C34.2495 65.8802 34.1513 65.3807 34.1513 64.777C34.1513 64.1591 34.2519 63.643 34.4531 63.2287C34.6544 62.8144 34.9219 62.5042 35.2557 62.2983C35.5919 62.0923 35.96 61.9893 36.3601 61.9893C36.6655 61.9893 36.9212 62.0414 37.1271 62.1456C37.3331 62.2474 37.4988 62.3752 37.6243 62.5291C37.7521 62.6806 37.8504 62.8298 37.919 62.9765H37.9759V62.0603H39.478V67.5682C39.478 68.0322 39.3643 68.4204 39.1371 68.7329C38.9098 69.0454 38.5949 69.2798 38.1925 69.4361C37.7924 69.5947 37.3319 69.674 36.8111 69.674ZM36.843 66.3004C37.0869 66.3004 37.2929 66.24 37.4609 66.1193C37.6314 65.9962 37.7616 65.821 37.8516 65.5937C37.9439 65.3641 37.9901 65.0895 37.9901 64.7699C37.9901 64.4503 37.9451 64.1733 37.8551 63.9389C37.7652 63.7022 37.6349 63.5187 37.4645 63.3885C37.294 63.2583 37.0869 63.1932 36.843 63.1932C36.5945 63.1932 36.3849 63.2606 36.2145 63.3956C36.044 63.5281 35.915 63.7128 35.8274 63.9496C35.7398 64.1863 35.696 64.4597 35.696 64.7699C35.696 65.0847 35.7398 65.357 35.8274 65.5866C35.9174 65.8139 36.0464 65.9903 36.2145 66.1157C36.3849 66.2389 36.5945 66.3004 36.843 66.3004ZM40.6818 67.5149V62.0603H42.1484V63.0121H42.2053C42.3047 62.6735 42.4716 62.4178 42.706 62.245C42.9403 62.0698 43.2102 61.9822 43.5156 61.9822C43.5914 61.9822 43.6731 61.987 43.7607 61.9964C43.8482 62.0059 43.9252 62.0189 43.9915 62.0355V63.3778C43.9205 63.3565 43.8222 63.3376 43.6967 63.321C43.5713 63.3044 43.4564 63.2961 43.3523 63.2961C43.1297 63.2961 42.9309 63.3447 42.7557 63.4417C42.5829 63.5364 42.4455 63.669 42.3438 63.8395C42.2443 64.0099 42.1946 64.2064 42.1946 64.429V67.5149H40.6818ZM46.1728 67.6179C45.8248 67.6179 45.5146 67.5575 45.2424 67.4368C44.9701 67.3137 44.7547 67.1326 44.5961 66.8934C44.4398 66.652 44.3617 66.3513 44.3617 65.9915C44.3617 65.6884 44.4173 65.4339 44.5286 65.228C44.6399 65.022 44.7914 64.8563 44.9831 64.7308C45.1749 64.6053 45.3927 64.5106 45.6365 64.4467C45.8828 64.3828 46.1408 64.3378 46.4107 64.3118C46.7279 64.2786 46.9836 64.2478 47.1777 64.2194C47.3719 64.1887 47.5127 64.1437 47.6003 64.0845C47.6879 64.0253 47.7317 63.9377 47.7317 63.8217V63.8004C47.7317 63.5755 47.6607 63.4015 47.5186 63.2784C47.379 63.1553 47.1801 63.0937 46.9221 63.0937C46.6498 63.0937 46.4332 63.1541 46.2722 63.2748C46.1112 63.3932 46.0047 63.5424 45.9526 63.7223L44.5534 63.6086C44.6245 63.2772 44.7641 62.9907 44.9725 62.7493C45.1808 62.5054 45.4495 62.3184 45.7786 62.1882C46.11 62.0556 46.4935 61.9893 46.9292 61.9893C47.2322 61.9893 47.5222 62.0248 47.7992 62.0959C48.0785 62.1669 48.3259 62.277 48.5414 62.4261C48.7592 62.5753 48.9308 62.767 49.0563 63.0014C49.1818 63.2334 49.2445 63.5116 49.2445 63.8359V67.5149H47.8098V66.7585H47.7672C47.6796 66.929 47.5624 67.0793 47.4157 67.2095C47.2689 67.3373 47.0925 67.438 46.8865 67.5113C46.6806 67.5824 46.4426 67.6179 46.1728 67.6179ZM46.606 66.5738C46.8285 66.5738 47.025 66.53 47.1955 66.4424C47.3659 66.3525 47.4997 66.2317 47.5968 66.0802C47.6938 65.9287 47.7424 65.7571 47.7424 65.5653V64.9865C47.695 65.0173 47.6299 65.0457 47.5471 65.0717C47.4666 65.0954 47.3754 65.1179 47.2736 65.1392C47.1718 65.1581 47.07 65.1759 46.9682 65.1924C46.8664 65.2067 46.7741 65.2197 46.6912 65.2315C46.5137 65.2576 46.3586 65.299 46.226 65.3558C46.0935 65.4126 45.9905 65.4896 45.9171 65.5866C45.8437 65.6813 45.807 65.7997 45.807 65.9417C45.807 66.1477 45.8816 66.3051 46.0307 66.414C46.1822 66.5206 46.374 66.5738 46.606 66.5738ZM52.8826 67.6214C52.3239 67.6214 51.8433 67.5031 51.4409 67.2663C51.0408 67.0272 50.733 66.6958 50.5176 66.272C50.3045 65.8482 50.198 65.3605 50.198 64.8089C50.198 64.2502 50.3057 63.7602 50.5211 63.3388C50.7389 62.915 51.0479 62.5847 51.448 62.348C51.8481 62.1089 52.3239 61.9893 52.8755 61.9893C53.3514 61.9893 53.7681 62.0757 54.1255 62.2486C54.483 62.4214 54.7659 62.664 54.9743 62.9765C55.1826 63.289 55.2974 63.656 55.3187 64.0774H53.8912C53.8509 63.8051 53.7444 63.5862 53.5716 63.4204C53.4011 63.2523 53.1774 63.1683 52.9004 63.1683C52.666 63.1683 52.4612 63.2322 52.286 63.3601C52.1132 63.4855 51.9783 63.669 51.8812 63.9105C51.7842 64.152 51.7356 64.4443 51.7356 64.7876C51.7356 65.1356 51.783 65.4316 51.8777 65.6754C51.9747 65.9192 52.1109 66.1051 52.286 66.2329C52.4612 66.3608 52.666 66.4247 52.9004 66.4247C53.0732 66.4247 53.2283 66.3892 53.3656 66.3182C53.5053 66.2471 53.6201 66.1442 53.71 66.0092C53.8024 65.8719 53.8627 65.7074 53.8912 65.5156H55.3187C55.295 65.9323 55.1814 66.2992 54.9778 66.6165C54.7766 66.9313 54.4984 67.1775 54.1433 67.3551C53.7882 67.5326 53.368 67.6214 52.8826 67.6214ZM56.2873 67.5149V62.0603H57.8001V67.5149H56.2873ZM57.0472 61.3572C56.8223 61.3572 56.6294 61.2826 56.4684 61.1335C56.3098 60.982 56.2305 60.8009 56.2305 60.5902C56.2305 60.3818 56.3098 60.2031 56.4684 60.054C56.6294 59.9024 56.8223 59.8267 57.0472 59.8267C57.2721 59.8267 57.4639 59.9024 57.6225 60.054C57.7835 60.2031 57.864 60.3818 57.864 60.5902C57.864 60.8009 57.7835 60.982 57.6225 61.1335C57.4639 61.2826 57.2721 61.3572 57.0472 61.3572ZM61.4764 67.6214C60.9248 67.6214 60.4477 67.5042 60.0453 67.2699C59.6452 67.0331 59.3362 66.704 59.1184 66.2826C58.9006 65.8589 58.7917 65.3676 58.7917 64.8089C58.7917 64.2455 58.9006 63.7531 59.1184 63.3317C59.3362 62.9079 59.6452 62.5788 60.0453 62.3444C60.4477 62.1077 60.9248 61.9893 61.4764 61.9893C62.028 61.9893 62.5038 62.1077 62.9039 62.3444C63.3064 62.5788 63.6165 62.9079 63.8343 63.3317C64.0521 63.7531 64.161 64.2455 64.161 64.8089C64.161 65.3676 64.0521 65.8589 63.8343 66.2826C63.6165 66.704 63.3064 67.0331 62.9039 67.2699C62.5038 67.5042 62.028 67.6214 61.4764 67.6214ZM61.4835 66.4496C61.7344 66.4496 61.944 66.3785 62.112 66.2365C62.2801 66.0921 62.4068 65.8956 62.492 65.647C62.5796 65.3984 62.6234 65.1155 62.6234 64.7983C62.6234 64.481 62.5796 64.1981 62.492 63.9496C62.4068 63.701 62.2801 63.5045 62.112 63.3601C61.944 63.2156 61.7344 63.1434 61.4835 63.1434C61.2302 63.1434 61.0171 63.2156 60.8443 63.3601C60.6738 63.5045 60.5448 63.701 60.4572 63.9496C60.372 64.1981 60.3294 64.481 60.3294 64.7983C60.3294 65.1155 60.372 65.3984 60.4572 65.647C60.5448 65.8956 60.6738 66.0921 60.8443 66.2365C61.0171 66.3785 61.2302 66.4496 61.4835 66.4496ZM60.9331 61.3572L61.6859 59.7415H63.085L62.002 61.3572H60.9331ZM66.6575 64.3615V67.5149H65.1447V62.0603H66.5865V63.0227H66.6504C66.7711 62.7055 66.9735 62.4545 67.2576 62.2699C67.5417 62.0828 67.8862 61.9893 68.291 61.9893C68.6698 61.9893 69.0001 62.0722 69.2818 62.2379C69.5635 62.4036 69.7825 62.6404 69.9387 62.9481C70.095 63.2535 70.1731 63.6181 70.1731 64.0419V67.5149H68.6603V64.3118C68.6627 63.978 68.5775 63.7175 68.4047 63.5305C68.2318 63.3411 67.9939 63.2464 67.6909 63.2464C67.4873 63.2464 67.3074 63.2902 67.1511 63.3778C66.9972 63.4654 66.8765 63.5933 66.7889 63.7613C66.7037 63.9271 66.6599 64.1271 66.6575 64.3615ZM75.6898 67.6037C75.2755 67.6037 74.9003 67.4971 74.5641 67.2841C74.2303 67.0686 73.9651 66.7526 73.7686 66.3359C73.5745 65.9169 73.4775 65.4032 73.4775 64.7947C73.4775 64.1697 73.5781 63.6501 73.7793 63.2358C73.9805 62.8191 74.248 62.5078 74.5819 62.3018C74.918 62.0935 75.2862 61.9893 75.6863 61.9893C75.9917 61.9893 76.2462 62.0414 76.4498 62.1456C76.6557 62.2474 76.8214 62.3752 76.9469 62.5291C77.0748 62.6806 77.1718 62.8298 77.2381 62.9765H77.2843V60.2422H78.7935V67.5149H77.302V66.6413H77.2381C77.1671 66.7928 77.0665 66.9432 76.9363 67.0923C76.8084 67.2391 76.6415 67.361 76.4355 67.4581C76.2319 67.5551 75.9834 67.6037 75.6898 67.6037ZM76.1692 66.3998C76.4131 66.3998 76.619 66.3335 76.7871 66.201C76.9576 66.066 77.0878 65.8778 77.1777 65.6363C77.2701 65.3949 77.3162 65.112 77.3162 64.7876C77.3162 64.4633 77.2712 64.1816 77.1813 63.9424C77.0913 63.7033 76.9611 63.5187 76.7907 63.3885C76.6202 63.2583 76.4131 63.1932 76.1692 63.1932C75.9206 63.1932 75.7111 63.2606 75.5407 63.3956C75.3702 63.5305 75.2412 63.7175 75.1536 63.9567C75.066 64.1958 75.0222 64.4728 75.0222 64.7876C75.0222 65.1049 75.066 65.3854 75.1536 65.6292C75.2435 65.8707 75.3726 66.0601 75.5407 66.1974C75.7111 66.3324 75.9206 66.3998 76.1692 66.3998ZM82.5231 67.6214C81.962 67.6214 81.479 67.5078 81.0742 67.2805C80.6718 67.0509 80.3616 66.7265 80.1438 66.3075C79.926 65.8861 79.8171 65.3878 79.8171 64.8125C79.8171 64.2514 79.926 63.759 80.1438 63.3352C80.3616 62.9114 80.6682 62.5812 81.0636 62.3444C81.4613 62.1077 81.9277 61.9893 82.4627 61.9893C82.8226 61.9893 83.1576 62.0473 83.4677 62.1633C83.7802 62.277 84.0524 62.4486 84.2844 62.6782C84.5188 62.9079 84.7011 63.1967 84.8313 63.5447C84.9615 63.8904 85.0266 64.2952 85.0266 64.7592V65.1747H80.4208V64.2372H83.6026C83.6026 64.0194 83.5553 63.8264 83.4606 63.6584C83.3659 63.4903 83.2345 63.3589 83.0664 63.2642C82.9007 63.1671 82.7077 63.1186 82.4876 63.1186C82.2579 63.1186 82.0543 63.1719 81.8768 63.2784C81.7016 63.3826 81.5643 63.5234 81.4648 63.701C81.3654 63.8762 81.3145 64.0715 81.3121 64.2869V65.1782C81.3121 65.4481 81.3619 65.6813 81.4613 65.8778C81.5631 66.0743 81.7063 66.2258 81.891 66.3324C82.0756 66.4389 82.2946 66.4922 82.5479 66.4922C82.716 66.4922 82.8699 66.4685 83.0096 66.4211C83.1493 66.3738 83.2688 66.3028 83.3683 66.2081C83.4677 66.1134 83.5434 65.9974 83.5955 65.8601L84.9947 65.9524C84.9237 66.2886 84.7781 66.5821 84.5579 66.8331C84.3401 67.0817 84.0584 67.2758 83.7127 67.4155C83.3694 67.5528 82.9729 67.6214 82.5231 67.6214ZM20.142 75.6157L18.7571 75.701C18.7334 75.5826 18.6825 75.4761 18.6044 75.3814C18.5263 75.2843 18.4233 75.2074 18.2955 75.1505C18.17 75.0914 18.0196 75.0618 17.8445 75.0618C17.6101 75.0618 17.4124 75.1115 17.2514 75.2109C17.0904 75.308 17.0099 75.4382 17.0099 75.6015C17.0099 75.7317 17.062 75.8418 17.1662 75.9318C17.2704 76.0218 17.4491 76.094 17.7024 76.1484L18.6896 76.3473C19.2199 76.4562 19.6153 76.6314 19.8757 76.8728C20.1361 77.1143 20.2663 77.4316 20.2663 77.8246C20.2663 78.182 20.161 78.4957 19.9503 78.7656C19.742 79.0355 19.4555 79.2462 19.0909 79.3977C18.7287 79.5469 18.3108 79.6214 17.8374 79.6214C17.1153 79.6214 16.54 79.4711 16.1115 79.1704C15.6854 78.8674 15.4356 78.4555 15.3622 77.9346L16.8501 77.8565C16.8951 78.0767 17.004 78.2448 17.1768 78.3608C17.3497 78.4744 17.571 78.5312 17.8409 78.5312C18.1061 78.5312 18.3191 78.4803 18.4801 78.3785C18.6435 78.2744 18.7263 78.1406 18.7287 77.9773C18.7263 77.8399 18.6683 77.7275 18.5547 77.6399C18.4411 77.5499 18.2659 77.4813 18.0291 77.4339L17.0845 77.2457C16.5518 77.1392 16.1553 76.9545 15.8949 76.6917C15.6368 76.429 15.5078 76.094 15.5078 75.6868C15.5078 75.3364 15.6025 75.0345 15.7919 74.7812C15.9837 74.5279 16.2524 74.3326 16.598 74.1953C16.946 74.058 17.3532 73.9893 17.8196 73.9893C18.5085 73.9893 19.0507 74.1349 19.446 74.4261C19.8438 74.7173 20.0758 75.1139 20.142 75.6157ZM23.6834 79.6214C23.1318 79.6214 22.6548 79.5042 22.2523 79.2699C21.8522 79.0331 21.5433 78.704 21.3255 78.2826C21.1077 77.8589 20.9988 77.3676 20.9988 76.8089C20.9988 76.2455 21.1077 75.7531 21.3255 75.3317C21.5433 74.9079 21.8522 74.5788 22.2523 74.3444C22.6548 74.1077 23.1318 73.9893 23.6834 73.9893C24.235 73.9893 24.7109 74.1077 25.111 74.3444C25.5134 74.5788 25.8236 74.9079 26.0414 75.3317C26.2592 75.7531 26.3681 76.2455 26.3681 76.8089C26.3681 77.3676 26.2592 77.8589 26.0414 78.2826C25.8236 78.704 25.5134 79.0331 25.111 79.2699C24.7109 79.5042 24.235 79.6214 23.6834 79.6214ZM23.6905 78.4496C23.9415 78.4496 24.151 78.3785 24.3191 78.2365C24.4872 78.0921 24.6138 77.8956 24.699 77.647C24.7866 77.3984 24.8304 77.1155 24.8304 76.7983C24.8304 76.481 24.7866 76.1981 24.699 75.9496C24.6138 75.701 24.4872 75.5045 24.3191 75.3601C24.151 75.2156 23.9415 75.1434 23.6905 75.1434C23.4372 75.1434 23.2241 75.2156 23.0513 75.3601C22.8809 75.5045 22.7518 75.701 22.6642 75.9496C22.579 76.1981 22.5364 76.481 22.5364 76.7983C22.5364 77.1155 22.579 77.3984 22.6642 77.647C22.7518 77.8956 22.8809 78.0921 23.0513 78.2365C23.2241 78.3785 23.4372 78.4496 23.6905 78.4496ZM30.285 74.0603V75.1967H26.9185V74.0603H30.285ZM27.6891 79.5149V73.6662C27.6891 73.2708 27.766 72.9429 27.9199 72.6825C28.0762 72.4221 28.2892 72.2268 28.5591 72.0966C28.829 71.9664 29.1356 71.9013 29.4789 71.9013C29.7109 71.9013 29.9228 71.919 30.1145 71.9545C30.3087 71.99 30.4531 72.022 30.5478 72.0504L30.2779 73.1868C30.2187 73.1678 30.1453 73.1501 30.0577 73.1335C29.9725 73.1169 29.8849 73.1086 29.7949 73.1086C29.5724 73.1086 29.4173 73.1607 29.3297 73.2649C29.2421 73.3667 29.1983 73.5099 29.1983 73.6946V79.5149H27.6891ZM34.1104 74.0603V75.1967H30.8256V74.0603H34.1104ZM31.5714 72.7535H33.0842V77.8388C33.0842 77.9784 33.1055 78.0873 33.1481 78.1655C33.1907 78.2412 33.2499 78.2945 33.3256 78.3253C33.4038 78.356 33.4937 78.3714 33.5955 78.3714C33.6665 78.3714 33.7376 78.3655 33.8086 78.3537C33.8796 78.3395 33.9341 78.3288 33.9719 78.3217L34.2099 79.4474C34.1341 79.4711 34.0276 79.4983 33.8903 79.5291C33.753 79.5622 33.5861 79.5824 33.3896 79.5895C33.025 79.6037 32.7054 79.5551 32.4308 79.4439C32.1585 79.3326 31.9466 79.1598 31.7951 78.9254C31.6436 78.691 31.569 78.3951 31.5714 78.0376V72.7535ZM36.1719 79.5149L34.6875 74.0603H36.218L37.0632 77.7251H37.1129L37.9936 74.0603H39.4957L40.3906 77.7038H40.4368L41.2678 74.0603H42.7947L41.3139 79.5149H39.7124L38.7749 76.0845H38.7074L37.7699 79.5149H36.1719ZM45.1571 79.6179C44.8091 79.6179 44.499 79.5575 44.2267 79.4368C43.9545 79.3137 43.7391 79.1326 43.5804 78.8934C43.4242 78.652 43.3461 78.3513 43.3461 77.9915C43.3461 77.6884 43.4017 77.4339 43.513 77.228C43.6242 77.022 43.7757 76.8563 43.9675 76.7308C44.1593 76.6053 44.3771 76.5106 44.6209 76.4467C44.8671 76.3828 45.1252 76.3378 45.3951 76.3118C45.7123 76.2786 45.968 76.2478 46.1621 76.2194C46.3562 76.1887 46.4971 76.1437 46.5847 76.0845C46.6723 76.0253 46.7161 75.9377 46.7161 75.8217V75.8004C46.7161 75.5755 46.6451 75.4015 46.503 75.2784C46.3633 75.1553 46.1645 75.0937 45.9064 75.0937C45.6342 75.0937 45.4176 75.1541 45.2566 75.2748C45.0956 75.3932 44.9891 75.5424 44.937 75.7223L43.5378 75.6086C43.6088 75.2772 43.7485 74.9907 43.9569 74.7493C44.1652 74.5054 44.4339 74.3184 44.763 74.1882C45.0944 74.0556 45.4779 73.9893 45.9135 73.9893C46.2166 73.9893 46.5066 74.0248 46.7836 74.0959C47.0629 74.1669 47.3103 74.277 47.5257 74.4261C47.7435 74.5753 47.9152 74.767 48.0407 75.0014C48.1661 75.2334 48.2289 75.5116 48.2289 75.8359V79.5149H46.7942V78.7585H46.7516C46.664 78.929 46.5468 79.0793 46.4 79.2095C46.2533 79.3373 46.0769 79.438 45.8709 79.5113C45.665 79.5824 45.427 79.6179 45.1571 79.6179ZM45.5904 78.5738C45.8129 78.5738 46.0094 78.53 46.1799 78.4424C46.3503 78.3525 46.4841 78.2317 46.5811 78.0802C46.6782 77.9287 46.7267 77.7571 46.7267 77.5653V76.9865C46.6794 77.0173 46.6143 77.0457 46.5314 77.0717C46.4509 77.0954 46.3598 77.1179 46.258 77.1392C46.1562 77.1581 46.0544 77.1759 45.9526 77.1924C45.8508 77.2067 45.7585 77.2197 45.6756 77.2315C45.498 77.2576 45.343 77.299 45.2104 77.3558C45.0778 77.4126 44.9748 77.4896 44.9015 77.5866C44.8281 77.6813 44.7914 77.7997 44.7914 77.9417C44.7914 78.1477 44.8659 78.3051 45.0151 78.414C45.1666 78.5206 45.3584 78.5738 45.5904 78.5738ZM49.4025 79.5149V74.0603H50.8691V75.0121H50.926C51.0254 74.6735 51.1923 74.4178 51.4267 74.245C51.661 74.0698 51.9309 73.9822 52.2363 73.9822C52.3121 73.9822 52.3938 73.987 52.4814 73.9964C52.569 74.0059 52.6459 74.0189 52.7122 74.0355V75.3778C52.6412 75.3565 52.5429 75.3376 52.4174 75.321C52.292 75.3044 52.1771 75.2961 52.073 75.2961C51.8504 75.2961 51.6516 75.3447 51.4764 75.4417C51.3036 75.5364 51.1663 75.669 51.0645 75.8395C50.965 76.0099 50.9153 76.2064 50.9153 76.429V79.5149H49.4025ZM55.7262 79.6214C55.1651 79.6214 54.6822 79.5078 54.2773 79.2805C53.8749 79.0509 53.5647 78.7265 53.3469 78.3075C53.1291 77.8861 53.0202 77.3878 53.0202 76.8125C53.0202 76.2514 53.1291 75.759 53.3469 75.3352C53.5647 74.9114 53.8713 74.5812 54.2667 74.3444C54.6644 74.1077 55.1308 73.9893 55.6658 73.9893C56.0257 73.9893 56.3607 74.0473 56.6708 74.1633C56.9833 74.277 57.2556 74.4486 57.4876 74.6782C57.7219 74.9079 57.9042 75.1967 58.0344 75.5447C58.1647 75.8904 58.2298 76.2952 58.2298 76.7592V77.1747H53.6239V76.2372H56.8058C56.8058 76.0194 56.7584 75.8264 56.6637 75.6584C56.569 75.4903 56.4376 75.3589 56.2695 75.2642C56.1038 75.1671 55.9109 75.1186 55.6907 75.1186C55.4611 75.1186 55.2575 75.1719 55.0799 75.2784C54.9047 75.3826 54.7674 75.5234 54.668 75.701C54.5685 75.8762 54.5176 76.0715 54.5153 76.2869V77.1782C54.5153 77.4481 54.565 77.6813 54.6644 77.8778C54.7662 78.0743 54.9094 78.2258 55.0941 78.3324C55.2788 78.4389 55.4978 78.4922 55.7511 78.4922C55.9192 78.4922 56.073 78.4685 56.2127 78.4211C56.3524 78.3738 56.4719 78.3028 56.5714 78.2081C56.6708 78.1134 56.7466 77.9974 56.7987 77.8601L58.1978 77.9524C58.1268 78.2886 57.9812 78.5821 57.761 78.8331C57.5432 79.0817 57.2615 79.2758 56.9158 79.4155C56.5726 79.5528 56.176 79.6214 55.7262 79.6214Z" fill="white"/>
<path d="M66.3302 0H97.4717C102.995 0 107.472 4.47715 107.472 10V32.2706H95.3302C79.314 32.2706 66.3302 19.2868 66.3302 3.27058V0Z" fill="#00664F"/>
<path d="M88.9167 11.1259H97.0834M97.0834 11.1259L93 6.99585M97.0834 11.1259L93 15.2559" stroke="white" stroke-width="1.6" stroke-linecap="round" stroke-linejoin="round"/>
</svg>
