<svg width="108" height="91" viewBox="0 0 108 91" fill="none" xmlns="http://www.w3.org/2000/svg">
<rect y="0.624023" width="107.472" height="90.018" rx="14" fill="#8F98FF"/>
<path d="M14.2102 56.1387H11.6321V48.8659H14.2315C14.9631 48.8659 15.5928 49.0115 16.1207 49.3027C16.6487 49.5916 17.0547 50.007 17.3388 50.5492C17.6252 51.0913 17.7685 51.74 17.7685 52.4952C17.7685 53.2528 17.6252 53.9038 17.3388 54.4483C17.0547 54.9928 16.6463 55.4107 16.1136 55.7019C15.5833 55.9931 14.9489 56.1387 14.2102 56.1387ZM13.1697 54.8212H14.1463C14.6009 54.8212 14.9832 54.7407 15.2933 54.5797C15.6058 54.4164 15.8402 54.1642 15.9964 53.8233C16.1551 53.4801 16.2344 53.0373 16.2344 52.4952C16.2344 51.9578 16.1551 51.5186 15.9964 51.1777C15.8402 50.8368 15.607 50.5859 15.2969 50.4249C14.9867 50.2639 14.6044 50.1834 14.1499 50.1834H13.1697V54.8212ZM21.3649 56.2452C20.8038 56.2452 20.3208 56.1316 19.916 55.9043C19.5136 55.6747 19.2034 55.3503 18.9856 54.9313C18.7678 54.5099 18.6589 54.0115 18.6589 53.4363C18.6589 52.8752 18.7678 52.3828 18.9856 51.959C19.2034 51.5352 19.51 51.205 19.9054 50.9682C20.3031 50.7315 20.7695 50.6131 21.3045 50.6131C21.6644 50.6131 21.9993 50.6711 22.3095 50.7871C22.622 50.9007 22.8942 51.0724 23.1262 51.302C23.3606 51.5317 23.5429 51.8205 23.6731 52.1685C23.8033 52.5141 23.8684 52.919 23.8684 53.383V53.7985H19.2626V52.861H22.4444C22.4444 52.6432 22.3971 52.4502 22.3024 52.2821C22.2077 52.1141 22.0763 51.9827 21.9082 51.888C21.7425 51.7909 21.5495 51.7424 21.3294 51.7424C21.0997 51.7424 20.8961 51.7956 20.7186 51.9022C20.5434 52.0063 20.4061 52.1472 20.3066 52.3248C20.2072 52.4999 20.1563 52.6953 20.1539 52.9107V53.802C20.1539 54.0719 20.2037 54.3051 20.3031 54.5016C20.4049 54.6981 20.5481 54.8496 20.7328 54.9561C20.9174 55.0627 21.1364 55.1159 21.3897 55.1159C21.5578 55.1159 21.7117 55.0923 21.8514 55.0449C21.9911 54.9976 22.1106 54.9266 22.21 54.8319C22.3095 54.7372 22.3852 54.6212 22.4373 54.4838L23.8365 54.5762C23.7654 54.9123 23.6199 55.2059 23.3997 55.4569C23.1819 55.7054 22.9002 55.8996 22.5545 56.0392C22.2112 56.1766 21.8147 56.2452 21.3649 56.2452ZM29.394 52.2395L28.0091 52.3248C27.9854 52.2064 27.9345 52.0998 27.8564 52.0051C27.7782 51.9081 27.6752 51.8311 27.5474 51.7743C27.4219 51.7151 27.2716 51.6855 27.0964 51.6855C26.862 51.6855 26.6644 51.7353 26.5034 51.8347C26.3424 51.9318 26.2619 52.062 26.2619 52.2253C26.2619 52.3555 26.314 52.4656 26.4181 52.5556C26.5223 52.6455 26.7011 52.7177 26.9544 52.7722L27.9416 52.9711C28.4719 53.08 28.8672 53.2551 29.1277 53.4966C29.3881 53.7381 29.5183 54.0553 29.5183 54.4483C29.5183 54.8058 29.4129 55.1195 29.2022 55.3894C28.9939 55.6593 28.7074 55.87 28.3429 56.0215C27.9806 56.1706 27.5628 56.2452 27.0893 56.2452C26.3672 56.2452 25.792 56.0949 25.3635 55.7942C24.9373 55.4912 24.6876 55.0792 24.6142 54.5584L26.1021 54.4803C26.1471 54.7005 26.256 54.8685 26.4288 54.9846C26.6016 55.0982 26.823 55.155 27.0929 55.155C27.358 55.155 27.5711 55.1041 27.7321 55.0023C27.8954 54.8981 27.9783 54.7644 27.9806 54.601C27.9783 54.4637 27.9203 54.3513 27.8066 54.2637C27.693 54.1737 27.5178 54.1051 27.2811 54.0577L26.3365 53.8695C25.8038 53.763 25.4073 53.5783 25.1468 53.3155C24.8888 53.0527 24.7598 52.7177 24.7598 52.3105C24.7598 51.9602 24.8545 51.6583 25.0439 51.405C25.2356 51.1517 25.5043 50.9564 25.85 50.8191C26.198 50.6818 26.6052 50.6131 27.0716 50.6131C27.7605 50.6131 28.3026 50.7587 28.698 51.0499C29.0957 51.3411 29.3277 51.7376 29.394 52.2395ZM32.0263 56.2417C31.6783 56.2417 31.3681 56.1813 31.0959 56.0605C30.8236 55.9374 30.6082 55.7563 30.4496 55.5172C30.2933 55.2757 30.2152 54.9751 30.2152 54.6152C30.2152 54.3122 30.2708 54.0577 30.3821 53.8517C30.4934 53.6458 30.6449 53.4801 30.8366 53.3546C31.0284 53.2291 31.2462 53.1344 31.4901 53.0705C31.7363 53.0066 31.9943 52.9616 32.2642 52.9355C32.5814 52.9024 32.8371 52.8716 33.0312 52.8432C33.2254 52.8124 33.3662 52.7675 33.4538 52.7083C33.5414 52.6491 33.5852 52.5615 33.5852 52.4455V52.4242C33.5852 52.1993 33.5142 52.0253 33.3722 51.9022C33.2325 51.7791 33.0336 51.7175 32.7756 51.7175C32.5033 51.7175 32.2867 51.7779 32.1257 51.8986C31.9647 52.017 31.8582 52.1661 31.8061 52.3461L30.407 52.2324C30.478 51.901 30.6177 51.6145 30.826 51.373C31.0343 51.1292 31.303 50.9422 31.6321 50.812C31.9635 50.6794 32.3471 50.6131 32.7827 50.6131C33.0857 50.6131 33.3757 50.6486 33.6527 50.7196C33.9321 50.7907 34.1795 50.9007 34.3949 51.0499C34.6127 51.199 34.7843 51.3908 34.9098 51.6252C35.0353 51.8572 35.098 52.1354 35.098 52.4597V56.1387H33.6634V55.3823H33.6207C33.5331 55.5527 33.416 55.7031 33.2692 55.8333C33.1224 55.9611 32.946 56.0617 32.7401 56.1351C32.5341 56.2061 32.2962 56.2417 32.0263 56.2417ZM32.4595 55.1976C32.6821 55.1976 32.8786 55.1538 33.049 55.0662C33.2195 54.9763 33.3532 54.8555 33.4503 54.704C33.5473 54.5525 33.5959 54.3809 33.5959 54.1891V53.6103C33.5485 53.641 33.4834 53.6694 33.4006 53.6955C33.3201 53.7192 33.2289 53.7417 33.1271 53.763C33.0253 53.7819 32.9235 53.7997 32.8217 53.8162C32.7199 53.8304 32.6276 53.8435 32.5447 53.8553C32.3672 53.8813 32.2121 53.9228 32.0795 53.9796C31.947 54.0364 31.844 54.1133 31.7706 54.2104C31.6972 54.3051 31.6605 54.4235 31.6605 54.5655C31.6605 54.7715 31.7351 54.9289 31.8842 55.0378C32.0357 55.1444 32.2275 55.1976 32.4595 55.1976ZM36.2717 56.1387V50.6841H37.7383V51.6358H37.7951C37.8945 51.2973 38.0614 51.0416 38.2958 50.8688C38.5302 50.6936 38.8001 50.606 39.1055 50.606C39.1812 50.606 39.2629 50.6107 39.3505 50.6202C39.4381 50.6297 39.515 50.6427 39.5813 50.6593V52.0016C39.5103 51.9803 39.4121 51.9614 39.2866 51.9448C39.1611 51.9282 39.0463 51.9199 38.9421 51.9199C38.7196 51.9199 38.5207 51.9685 38.3455 52.0655C38.1727 52.1602 38.0354 52.2928 37.9336 52.4632C37.8342 52.6337 37.7844 52.8302 37.7844 53.0527V56.1387H36.2717ZM40.3635 56.1387V50.6841H41.8301V51.6358H41.8869C41.9863 51.2973 42.1532 51.0416 42.3876 50.8688C42.622 50.6936 42.8919 50.606 43.1973 50.606C43.273 50.606 43.3547 50.6107 43.4423 50.6202C43.5299 50.6297 43.6068 50.6427 43.6731 50.6593V52.0016C43.6021 51.9803 43.5038 51.9614 43.3784 51.9448C43.2529 51.9282 43.1381 51.9199 43.0339 51.9199C42.8114 51.9199 42.6125 51.9685 42.4373 52.0655C42.2645 52.1602 42.1272 52.2928 42.0254 52.4632C41.926 52.6337 41.8762 52.8302 41.8762 53.0527V56.1387H40.3635ZM46.6658 56.2452C46.1142 56.2452 45.6372 56.128 45.2347 55.8936C44.8346 55.6569 44.5257 55.3278 44.3079 54.9064C44.0901 54.4827 43.9812 53.9914 43.9812 53.4327C43.9812 52.8693 44.0901 52.3768 44.3079 51.9554C44.5257 51.5317 44.8346 51.2026 45.2347 50.9682C45.6372 50.7315 46.1142 50.6131 46.6658 50.6131C47.2174 50.6131 47.6933 50.7315 48.0934 50.9682C48.4959 51.2026 48.806 51.5317 49.0238 51.9554C49.2416 52.3768 49.3505 52.8693 49.3505 53.4327C49.3505 53.9914 49.2416 54.4827 49.0238 54.9064C48.806 55.3278 48.4959 55.6569 48.0934 55.8936C47.6933 56.128 47.2174 56.2452 46.6658 56.2452ZM46.6729 55.0733C46.9239 55.0733 47.1334 55.0023 47.3015 54.8603C47.4696 54.7158 47.5962 54.5194 47.6815 54.2708C47.7691 54.0222 47.8129 53.7393 47.8129 53.4221C47.8129 53.1048 47.7691 52.8219 47.6815 52.5733C47.5962 52.3248 47.4696 52.1283 47.3015 51.9838C47.1334 51.8394 46.9239 51.7672 46.6729 51.7672C46.4196 51.7672 46.2066 51.8394 46.0337 51.9838C45.8633 52.1283 45.7343 52.3248 45.6467 52.5733C45.5614 52.8219 45.5188 53.1048 45.5188 53.4221C45.5188 53.7393 45.5614 54.0222 45.6467 54.2708C45.7343 54.5194 45.8633 54.7158 46.0337 54.8603C46.2066 55.0023 46.4196 55.0733 46.6729 55.0733ZM51.8469 48.8659V56.1387H50.3342V48.8659H51.8469ZM54.5716 48.8659V56.1387H53.0588V48.8659H54.5716ZM58.2479 56.2452C57.6963 56.2452 57.2192 56.128 56.8168 55.8936C56.4167 55.6569 56.1077 55.3278 55.8899 54.9064C55.6721 54.4827 55.5632 53.9914 55.5632 53.4327C55.5632 52.8693 55.6721 52.3768 55.8899 51.9554C56.1077 51.5317 56.4167 51.2026 56.8168 50.9682C57.2192 50.7315 57.6963 50.6131 58.2479 50.6131C58.7995 50.6131 59.2753 50.7315 59.6754 50.9682C60.0779 51.2026 60.388 51.5317 60.6058 51.9554C60.8236 52.3768 60.9325 52.8693 60.9325 53.4327C60.9325 53.9914 60.8236 54.4827 60.6058 54.9064C60.388 55.3278 60.0779 55.6569 59.6754 55.8936C59.2753 56.128 58.7995 56.2452 58.2479 56.2452ZM58.255 55.0733C58.5059 55.0733 58.7154 55.0023 58.8835 54.8603C59.0516 54.7158 59.1783 54.5194 59.2635 54.2708C59.3511 54.0222 59.3949 53.7393 59.3949 53.4221C59.3949 53.1048 59.3511 52.8219 59.2635 52.5733C59.1783 52.3248 59.0516 52.1283 58.8835 51.9838C58.7154 51.8394 58.5059 51.7672 58.255 51.7672C58.0017 51.7672 57.7886 51.8394 57.6158 51.9838C57.4453 52.1283 57.3163 52.3248 57.2287 52.5733C57.1435 52.8219 57.1009 53.1048 57.1009 53.4221C57.1009 53.7393 57.1435 54.0222 57.2287 54.2708C57.3163 54.5194 57.4453 54.7158 57.6158 54.8603C57.7886 55.0023 58.0017 55.0733 58.255 55.0733ZM66.2406 56.2275C65.8263 56.2275 65.4511 56.1209 65.1149 55.9078C64.7811 55.6924 64.5159 55.3764 64.3194 54.9597C64.1253 54.5407 64.0282 54.0269 64.0282 53.4185C64.0282 52.7935 64.1288 52.2739 64.3301 51.8596C64.5313 51.4429 64.7988 51.1316 65.1326 50.9256C65.4688 50.7173 65.8369 50.6131 66.237 50.6131C66.5424 50.6131 66.7969 50.6652 67.0005 50.7694C67.2065 50.8712 67.3722 50.999 67.4977 51.1529C67.6255 51.3044 67.7226 51.4535 67.7889 51.6003H67.835V48.8659H69.3443V56.1387H67.8528V55.2651H67.7889C67.7179 55.4166 67.6172 55.5669 67.487 55.7161C67.3592 55.8629 67.1923 55.9848 66.9863 56.0819C66.7827 56.1789 66.5342 56.2275 66.2406 56.2275ZM66.72 55.0236C66.9638 55.0236 67.1698 54.9573 67.3379 54.8248C67.5083 54.6898 67.6386 54.5016 67.7285 54.2601C67.8208 54.0186 67.867 53.7357 67.867 53.4114C67.867 53.0871 67.822 52.8053 67.7321 52.5662C67.6421 52.3271 67.5119 52.1425 67.3414 52.0123C67.171 51.882 66.9638 51.8169 66.72 51.8169C66.4714 51.8169 66.2619 51.8844 66.0914 52.0194C65.921 52.1543 65.792 52.3413 65.7044 52.5804C65.6168 52.8195 65.573 53.0965 65.573 53.4114C65.573 53.7286 65.6168 54.0092 65.7044 54.253C65.7943 54.4945 65.9234 54.6839 66.0914 54.8212C66.2619 54.9561 66.4714 55.0236 66.72 55.0236ZM73.0739 56.2452C72.5128 56.2452 72.0298 56.1316 71.625 55.9043C71.2225 55.6747 70.9124 55.3503 70.6946 54.9313C70.4768 54.5099 70.3679 54.0115 70.3679 53.4363C70.3679 52.8752 70.4768 52.3828 70.6946 51.959C70.9124 51.5352 71.219 51.205 71.6143 50.9682C72.0121 50.7315 72.4785 50.6131 73.0135 50.6131C73.3733 50.6131 73.7083 50.6711 74.0185 50.7871C74.331 50.9007 74.6032 51.0724 74.8352 51.302C75.0696 51.5317 75.2519 51.8205 75.3821 52.1685C75.5123 52.5141 75.5774 52.919 75.5774 53.383V53.7985H70.9716V52.861H74.1534C74.1534 52.6432 74.1061 52.4502 74.0114 52.2821C73.9167 52.1141 73.7853 51.9827 73.6172 51.888C73.4515 51.7909 73.2585 51.7424 73.0384 51.7424C72.8087 51.7424 72.6051 51.7956 72.4276 51.9022C72.2524 52.0063 72.1151 52.1472 72.0156 52.3248C71.9162 52.4999 71.8653 52.6953 71.8629 52.9107V53.802C71.8629 54.0719 71.9126 54.3051 72.0121 54.5016C72.1139 54.6981 72.2571 54.8496 72.4418 54.9561C72.6264 55.0627 72.8454 55.1159 73.0987 55.1159C73.2668 55.1159 73.4207 55.0923 73.5604 55.0449C73.7 54.9976 73.8196 54.9266 73.919 54.8319C74.0185 54.7372 74.0942 54.6212 74.1463 54.4838L75.5455 54.5762C75.4744 54.9123 75.3288 55.2059 75.1087 55.4569C74.8909 55.7054 74.6091 55.8996 74.2635 56.0392C73.9202 56.1766 73.5237 56.2452 73.0739 56.2452ZM12.8857 68.1387H11.2379L13.7486 60.8659H15.7301L18.2372 68.1387H16.5895L14.7678 62.5279H14.7109L12.8857 68.1387ZM12.7827 65.28H16.6747V66.4803H12.7827V65.28ZM19.0842 70.1841V62.6841H20.5756V63.6003H20.6431C20.7094 63.4535 20.8053 63.3044 20.9308 63.1529C21.0586 62.999 21.2243 62.8712 21.4279 62.7694C21.6339 62.6652 21.8896 62.6131 22.195 62.6131C22.5927 62.6131 22.9596 62.7173 23.2958 62.9256C23.632 63.1316 23.9007 63.4429 24.1019 63.8596C24.3031 64.2739 24.4038 64.7935 24.4038 65.4185C24.4038 66.0269 24.3055 66.5407 24.109 66.9597C23.9149 67.3764 23.6497 67.6924 23.3136 67.9078C22.9798 68.1209 22.6057 68.2275 22.1914 68.2275C21.8978 68.2275 21.6481 68.1789 21.4421 68.0819C21.2385 67.9848 21.0716 67.8629 20.9414 67.7161C20.8112 67.5669 20.7118 67.4166 20.6431 67.2651H20.5969V70.1841H19.0842ZM20.565 65.4114C20.565 65.7357 20.61 66.0186 20.6999 66.2601C20.7899 66.5016 20.9201 66.6898 21.0906 66.8248C21.261 66.9573 21.4682 67.0236 21.712 67.0236C21.9582 67.0236 22.1665 66.9561 22.337 66.8212C22.5075 66.6839 22.6365 66.4945 22.7241 66.253C22.814 66.0092 22.859 65.7286 22.859 65.4114C22.859 65.0965 22.8152 64.8195 22.7276 64.5804C22.64 64.3413 22.511 64.1543 22.3406 64.0194C22.1701 63.8844 21.9606 63.8169 21.712 63.8169C21.4658 63.8169 21.2575 63.882 21.087 64.0123C20.9189 64.1425 20.7899 64.3271 20.6999 64.5662C20.61 64.8053 20.565 65.0871 20.565 65.4114ZM26.9251 60.8659V68.1387H25.4123V60.8659H26.9251ZM28.1369 68.1387V62.6841H29.6497V68.1387H28.1369ZM28.8968 61.981C28.6719 61.981 28.479 61.9064 28.318 61.7573C28.1594 61.6058 28.0801 61.4247 28.0801 61.214C28.0801 61.0056 28.1594 60.8269 28.318 60.6777C28.479 60.5262 28.6719 60.4505 28.8968 60.4505C29.1217 60.4505 29.3135 60.5262 29.4721 60.6777C29.6331 60.8269 29.7136 61.0056 29.7136 61.214C29.7136 61.4247 29.6331 61.6058 29.4721 61.7573C29.3135 61.9064 29.1217 61.981 28.8968 61.981ZM33.326 68.2452C32.7673 68.2452 32.2867 68.1268 31.8842 67.8901C31.4841 67.651 31.1764 67.3195 30.9609 66.8958C30.7479 66.472 30.6413 65.9843 30.6413 65.4327C30.6413 64.874 30.7491 64.3839 30.9645 63.9625C31.1823 63.5388 31.4912 63.2085 31.8913 62.9718C32.2914 62.7327 32.7673 62.6131 33.3189 62.6131C33.7947 62.6131 34.2114 62.6995 34.5689 62.8723C34.9264 63.0452 35.2093 63.2878 35.4176 63.6003C35.6259 63.9128 35.7408 64.2798 35.7621 64.7012H34.3345C34.2943 64.4289 34.1877 64.2099 34.0149 64.0442C33.8445 63.8761 33.6207 63.7921 33.3438 63.7921C33.1094 63.7921 32.9046 63.856 32.7294 63.9838C32.5566 64.1093 32.4216 64.2928 32.3246 64.5343C32.2275 64.7757 32.179 65.0681 32.179 65.4114C32.179 65.7594 32.2263 66.0553 32.321 66.2992C32.4181 66.543 32.5542 66.7289 32.7294 66.8567C32.9046 66.9846 33.1094 67.0485 33.3438 67.0485C33.5166 67.0485 33.6716 67.013 33.8089 66.9419C33.9486 66.8709 34.0634 66.7679 34.1534 66.633C34.2457 66.4957 34.3061 66.3311 34.3345 66.1394H35.7621C35.7384 66.556 35.6248 66.923 35.4212 67.2402C35.2199 67.5551 34.9418 67.8013 34.5866 67.9789C34.2315 68.1564 33.8113 68.2452 33.326 68.2452ZM38.286 68.2417C37.938 68.2417 37.6279 68.1813 37.3556 68.0605C37.0834 67.9374 36.868 67.7563 36.7093 67.5172C36.5531 67.2757 36.475 66.9751 36.475 66.6152C36.475 66.3122 36.5306 66.0577 36.6419 65.8517C36.7531 65.6458 36.9047 65.4801 37.0964 65.3546C37.2882 65.2291 37.506 65.1344 37.7498 65.0705C37.996 65.0066 38.2541 64.9616 38.524 64.9355C38.8412 64.9024 39.0969 64.8716 39.291 64.8432C39.4851 64.8124 39.626 64.7675 39.7136 64.7083C39.8012 64.6491 39.845 64.5615 39.845 64.4455V64.4242C39.845 64.1993 39.774 64.0253 39.6319 63.9022C39.4922 63.7791 39.2934 63.7175 39.0353 63.7175C38.7631 63.7175 38.5465 63.7779 38.3855 63.8986C38.2245 64.017 38.118 64.1661 38.0659 64.3461L36.6667 64.2324C36.7377 63.901 36.8774 63.6145 37.0858 63.373C37.2941 63.1292 37.5628 62.9422 37.8919 62.812C38.2233 62.6794 38.6068 62.6131 39.0424 62.6131C39.3455 62.6131 39.6355 62.6486 39.9125 62.7196C40.1918 62.7907 40.4392 62.9007 40.6547 63.0499C40.8725 63.199 41.0441 63.3908 41.1696 63.6252C41.295 63.8572 41.3578 64.1354 41.3578 64.4597V68.1387H39.9231V67.3823H39.8805C39.7929 67.5527 39.6757 67.7031 39.5289 67.8333C39.3822 67.9611 39.2058 68.0617 38.9998 68.1351C38.7939 68.2061 38.5559 68.2417 38.286 68.2417ZM38.7193 67.1976C38.9418 67.1976 39.1383 67.1538 39.3088 67.0662C39.4792 66.9763 39.613 66.8555 39.71 66.704C39.8071 66.5525 39.8556 66.3809 39.8556 66.1891V65.6103C39.8083 65.641 39.7432 65.6694 39.6603 65.6955C39.5798 65.7192 39.4887 65.7417 39.3869 65.763C39.2851 65.7819 39.1833 65.7997 39.0815 65.8162C38.9797 65.8304 38.8874 65.8435 38.8045 65.8553C38.627 65.8813 38.4719 65.9228 38.3393 65.9796C38.2067 66.0364 38.1038 66.1133 38.0304 66.2104C37.957 66.3051 37.9203 66.4235 37.9203 66.5655C37.9203 66.7715 37.9949 66.9289 38.144 67.0378C38.2955 67.1444 38.4873 67.1976 38.7193 67.1976ZM44.9959 68.2452C44.4372 68.2452 43.9566 68.1268 43.5542 67.8901C43.1541 67.651 42.8463 67.3195 42.6309 66.8958C42.4178 66.472 42.3113 65.9843 42.3113 65.4327C42.3113 64.874 42.419 64.3839 42.6344 63.9625C42.8522 63.5388 43.1612 63.2085 43.5613 62.9718C43.9614 62.7327 44.4372 62.6131 44.9888 62.6131C45.4647 62.6131 45.8813 62.6995 46.2388 62.8723C46.5963 63.0452 46.8792 63.2878 47.0875 63.6003C47.2959 63.9128 47.4107 64.2798 47.432 64.7012H46.0044C45.9642 64.4289 45.8577 64.2099 45.6848 64.0442C45.5144 63.8761 45.2907 63.7921 45.0137 63.7921C44.7793 63.7921 44.5745 63.856 44.3993 63.9838C44.2265 64.1093 44.0916 64.2928 43.9945 64.5343C43.8974 64.7757 43.8489 65.0681 43.8489 65.4114C43.8489 65.7594 43.8962 66.0553 43.9909 66.2992C44.088 66.543 44.2241 66.7289 44.3993 66.8567C44.5745 66.9846 44.7793 67.0485 45.0137 67.0485C45.1865 67.0485 45.3416 67.013 45.4789 66.9419C45.6185 66.8709 45.7334 66.7679 45.8233 66.633C45.9157 66.4957 45.976 66.3311 46.0044 66.1394H47.432C47.4083 66.556 47.2947 66.923 47.0911 67.2402C46.8899 67.5551 46.6117 67.8013 46.2566 67.9789C45.9015 68.1564 45.4812 68.2452 44.9959 68.2452ZM48.4006 68.1387V62.6841H49.9134V68.1387H48.4006ZM49.1605 61.981C48.9356 61.981 48.7427 61.9064 48.5817 61.7573C48.4231 61.6058 48.3438 61.4247 48.3438 61.214C48.3438 61.0056 48.4231 60.8269 48.5817 60.6777C48.7427 60.5262 48.9356 60.4505 49.1605 60.4505C49.3854 60.4505 49.5772 60.5262 49.7358 60.6777C49.8968 60.8269 49.9773 61.0056 49.9773 61.214C49.9773 61.4247 49.8968 61.6058 49.7358 61.7573C49.5772 61.9064 49.3854 61.981 49.1605 61.981ZM53.5897 68.2452C53.0381 68.2452 52.561 68.128 52.1586 67.8936C51.7585 67.6569 51.4495 67.3278 51.2317 66.9064C51.0139 66.4827 50.905 65.9914 50.905 65.4327C50.905 64.8693 51.0139 64.3768 51.2317 63.9554C51.4495 63.5317 51.7585 63.2026 52.1586 62.9682C52.561 62.7315 53.0381 62.6131 53.5897 62.6131C54.1413 62.6131 54.6171 62.7315 55.0172 62.9682C55.4197 63.2026 55.7298 63.5317 55.9476 63.9554C56.1654 64.3768 56.2743 64.8693 56.2743 65.4327C56.2743 65.9914 56.1654 66.4827 55.9476 66.9064C55.7298 67.3278 55.4197 67.6569 55.0172 67.8936C54.6171 68.128 54.1413 68.2452 53.5897 68.2452ZM53.5968 67.0733C53.8477 67.0733 54.0572 67.0023 54.2253 66.8603C54.3934 66.7158 54.5201 66.5194 54.6053 66.2708C54.6929 66.0222 54.7367 65.7393 54.7367 65.4221C54.7367 65.1048 54.6929 64.8219 54.6053 64.5733C54.5201 64.3248 54.3934 64.1283 54.2253 63.9838C54.0572 63.8394 53.8477 63.7672 53.5968 63.7672C53.3435 63.7672 53.1304 63.8394 52.9576 63.9838C52.7871 64.1283 52.6581 64.3248 52.5705 64.5733C52.4853 64.8219 52.4426 65.1048 52.4426 65.4221C52.4426 65.7393 52.4853 66.0222 52.5705 66.2708C52.6581 66.5194 52.7871 66.7158 52.9576 66.8603C53.1304 67.0023 53.3435 67.0733 53.5968 67.0733ZM58.7708 64.9853V68.1387H57.258V62.6841H58.6998V63.6465H58.7637C58.8844 63.3292 59.0868 63.0783 59.3709 62.8936C59.655 62.7066 59.9995 62.6131 60.4043 62.6131C60.7831 62.6131 61.1133 62.696 61.3951 62.8617C61.6768 63.0274 61.8958 63.2641 62.052 63.5719C62.2083 63.8773 62.2864 64.2419 62.2864 64.6657V68.1387H60.7736V64.9355C60.776 64.6017 60.6908 64.3413 60.5179 64.1543C60.3451 63.9649 60.1072 63.8702 59.8042 63.8702C59.6006 63.8702 59.4206 63.914 59.2644 64.0016C59.1105 64.0892 58.9898 64.217 58.9022 64.3851C58.8169 64.5508 58.7731 64.7509 58.7708 64.9853ZM65.9645 68.2452C65.4034 68.2452 64.9205 68.1316 64.5156 67.9043C64.1132 67.6747 63.803 67.3503 63.5852 66.9313C63.3674 66.5099 63.2585 66.0115 63.2585 65.4363C63.2585 64.8752 63.3674 64.3828 63.5852 63.959C63.803 63.5352 64.1096 63.205 64.505 62.9682C64.9027 62.7315 65.3691 62.6131 65.9041 62.6131C66.264 62.6131 66.599 62.6711 66.9091 62.7871C67.2216 62.9007 67.4938 63.0724 67.7259 63.302C67.9602 63.5317 68.1425 63.8205 68.2727 64.1685C68.4029 64.5141 68.468 64.919 68.468 65.383V65.7985H63.8622V64.861H67.044C67.044 64.6432 66.9967 64.4502 66.902 64.2821C66.8073 64.1141 66.6759 63.9827 66.5078 63.888C66.3421 63.7909 66.1491 63.7424 65.929 63.7424C65.6993 63.7424 65.4957 63.7956 65.3182 63.9022C65.143 64.0063 65.0057 64.1472 64.9062 64.3248C64.8068 64.4999 64.7559 64.6953 64.7536 64.9107V65.802C64.7536 66.0719 64.8033 66.3051 64.9027 66.5016C65.0045 66.6981 65.1477 66.8496 65.3324 66.9561C65.517 67.0627 65.736 67.1159 65.9893 67.1159C66.1574 67.1159 66.3113 67.0923 66.451 67.0449C66.5907 66.9976 66.7102 66.9266 66.8097 66.8319C66.9091 66.7372 66.9848 66.6212 67.0369 66.4838L68.4361 66.5762C68.3651 66.9123 68.2195 67.2059 67.9993 67.4569C67.7815 67.7054 67.4998 67.8996 67.1541 68.0392C66.8108 68.1766 66.4143 68.2452 65.9645 68.2452ZM73.9936 64.2395L72.6087 64.3248C72.585 64.2064 72.5341 64.0998 72.456 64.0051C72.3778 63.9081 72.2749 63.8311 72.147 63.7743C72.0215 63.7151 71.8712 63.6855 71.696 63.6855C71.4616 63.6855 71.264 63.7353 71.103 63.8347C70.942 63.9318 70.8615 64.062 70.8615 64.2253C70.8615 64.3555 70.9136 64.4656 71.0178 64.5556C71.1219 64.6455 71.3007 64.7177 71.554 64.7722L72.5412 64.9711C73.0715 65.08 73.4669 65.2551 73.7273 65.4966C73.9877 65.7381 74.1179 66.0553 74.1179 66.4483C74.1179 66.8058 74.0125 67.1195 73.8018 67.3894C73.5935 67.6593 73.3071 67.87 72.9425 68.0215C72.5803 68.1706 72.1624 68.2452 71.6889 68.2452C70.9669 68.2452 70.3916 68.0949 69.9631 67.7942C69.5369 67.4912 69.2872 67.0792 69.2138 66.5584L70.7017 66.4803C70.7467 66.7005 70.8556 66.8685 71.0284 66.9846C71.2012 67.0982 71.4226 67.155 71.6925 67.155C71.9576 67.155 72.1707 67.1041 72.3317 67.0023C72.495 66.8981 72.5779 66.7644 72.5803 66.601C72.5779 66.4637 72.5199 66.3513 72.4062 66.2637C72.2926 66.1737 72.1174 66.1051 71.8807 66.0577L70.9361 65.8695C70.4034 65.763 70.0069 65.5783 69.7464 65.3155C69.4884 65.0527 69.3594 64.7177 69.3594 64.3105C69.3594 63.9602 69.4541 63.6583 69.6435 63.405C69.8352 63.1517 70.1039 62.9564 70.4496 62.8191C70.7976 62.6818 71.2048 62.6131 71.6712 62.6131C72.3601 62.6131 72.9022 62.7587 73.2976 63.0499C73.6953 63.3411 73.9273 63.7376 73.9936 64.2395ZM79.0504 68.1387L76.9695 60.8659H78.6491L79.853 65.9192H79.9134L81.2415 60.8659H82.6797L84.0043 65.9299H84.0682L85.272 60.8659H86.9517L84.8707 68.1387H83.3722L81.9872 63.3837H81.9304L80.549 68.1387H79.0504ZM89.6461 68.2452C89.085 68.2452 88.6021 68.1316 88.1973 67.9043C87.7948 67.6747 87.4847 67.3503 87.2669 66.9313C87.0491 66.5099 86.9402 66.0115 86.9402 65.4363C86.9402 64.8752 87.0491 64.3828 87.2669 63.959C87.4847 63.5352 87.7913 63.205 88.1866 62.9682C88.5843 62.7315 89.0507 62.6131 89.5858 62.6131C89.9456 62.6131 90.2806 62.6711 90.5907 62.7871C90.9032 62.9007 91.1755 63.0724 91.4075 63.302C91.6419 63.5317 91.8242 63.8205 91.9544 64.1685C92.0846 64.5141 92.1497 64.919 92.1497 65.383V65.7985H87.5439V64.861H90.7257C90.7257 64.6432 90.6783 64.4502 90.5836 64.2821C90.4889 64.1141 90.3575 63.9827 90.1895 63.888C90.0237 63.7909 89.8308 63.7424 89.6106 63.7424C89.381 63.7424 89.1774 63.7956 88.9998 63.9022C88.8246 64.0063 88.6873 64.1472 88.5879 64.3248C88.4885 64.4999 88.4376 64.6953 88.4352 64.9107V65.802C88.4352 66.0719 88.4849 66.3051 88.5843 66.5016C88.6861 66.6981 88.8294 66.8496 89.014 66.9561C89.1987 67.0627 89.4177 67.1159 89.671 67.1159C89.8391 67.1159 89.993 67.0923 90.1326 67.0449C90.2723 66.9976 90.3919 66.9266 90.4913 66.8319C90.5907 66.7372 90.6665 66.6212 90.7186 66.4838L92.1177 66.5762C92.0467 66.9123 91.9011 67.2059 91.6809 67.4569C91.4631 67.7054 91.1814 67.8996 90.8358 68.0392C90.4925 68.1766 90.0959 68.2452 89.6461 68.2452ZM93.1653 68.1387V60.8659H94.6781V63.6003H94.7243C94.7905 63.4535 94.8864 63.3044 95.0119 63.1529C95.1397 62.999 95.3055 62.8712 95.5091 62.7694C95.715 62.6652 95.9707 62.6131 96.2761 62.6131C96.6738 62.6131 97.0408 62.7173 97.377 62.9256C97.7131 63.1316 97.9818 63.4429 98.1831 63.8596C98.3843 64.2739 98.4849 64.7935 98.4849 65.4185C98.4849 66.0269 98.3867 66.5407 98.1902 66.9597C97.996 67.3764 97.7309 67.6924 97.3947 67.9078C97.0609 68.1209 96.6868 68.2275 96.2725 68.2275C95.979 68.2275 95.7292 68.1789 95.5233 68.0819C95.3197 67.9848 95.1528 67.8629 95.0225 67.7161C94.8923 67.5669 94.7929 67.4166 94.7243 67.2651H94.6568V68.1387H93.1653ZM94.6461 65.4114C94.6461 65.7357 94.6911 66.0186 94.7811 66.2601C94.871 66.5016 95.0012 66.6898 95.1717 66.8248C95.3422 66.9573 95.5493 67.0236 95.7931 67.0236C96.0394 67.0236 96.2477 66.9561 96.4181 66.8212C96.5886 66.6839 96.7176 66.4945 96.8052 66.253C96.8952 66.0092 96.9402 65.7286 96.9402 65.4114C96.9402 65.0965 96.8964 64.8195 96.8088 64.5804C96.7212 64.3413 96.5922 64.1543 96.4217 64.0194C96.2512 63.8844 96.0417 63.8169 95.7931 63.8169C95.5469 63.8169 95.3386 63.882 95.1681 64.0123C95.0001 64.1425 94.871 64.3271 94.7811 64.5662C94.6911 64.8053 94.6461 65.0871 94.6461 65.4114Z" fill="white"/>
<path d="M66.3302 0.624023H97.4717C102.995 0.624023 107.472 5.10118 107.472 10.624V32.8946H95.3302C79.314 32.8946 66.3302 19.9109 66.3302 3.89461V0.624023Z" fill="#182A88"/>
<path d="M91.9167 11.7502H100.083M100.083 11.7502L96 7.62012M100.083 11.7502L96 15.8802" stroke="white" stroke-width="1.6" stroke-linecap="round" stroke-linejoin="round"/>
</svg>
