<svg width="108" height="91" viewBox="0 0 108 91" fill="none" xmlns="http://www.w3.org/2000/svg">
<rect width="107.472" height="90.018" rx="14" fill="#FFC278"/>
<path d="M22.049 50.7883H20.4936C20.4652 50.5871 20.4072 50.4084 20.3196 50.2521C20.232 50.0935 20.1196 49.9585 19.9822 49.8473C19.8449 49.736 19.6863 49.6508 19.5064 49.5916C19.3288 49.5324 19.1359 49.5028 18.9276 49.5028C18.5511 49.5028 18.2232 49.5963 17.9439 49.7834C17.6645 49.968 17.4479 50.2379 17.294 50.593C17.1402 50.9458 17.0632 51.3743 17.0632 51.8785C17.0632 52.397 17.1402 52.8326 17.294 53.1853C17.4503 53.5381 17.6681 53.8044 17.9474 53.9844C18.2268 54.1643 18.55 54.2542 18.9169 54.2542C19.1229 54.2542 19.3134 54.227 19.4886 54.1726C19.6662 54.1181 19.8236 54.0388 19.9609 53.9346C20.0982 53.8281 20.2119 53.6991 20.3018 53.5476C20.3942 53.396 20.4581 53.2232 20.4936 53.0291L22.049 53.0362C22.0088 53.37 21.9081 53.692 21.7472 54.0021C21.5885 54.3099 21.3743 54.5857 21.1044 54.8295C20.8369 55.071 20.5173 55.2628 20.1456 55.4048C19.7763 55.5445 19.3584 55.6143 18.892 55.6143C18.2434 55.6143 17.6634 55.4675 17.152 55.174C16.643 54.8804 16.2405 54.4555 15.9446 53.8991C15.651 53.3428 15.5043 52.6692 15.5043 51.8785C15.5043 51.0854 15.6534 50.4107 15.9517 49.8544C16.25 49.298 16.6548 48.8743 17.1662 48.5831C17.6776 48.2895 18.2528 48.1427 18.892 48.1427C19.3134 48.1427 19.7041 48.2019 20.0639 48.3203C20.4261 48.4387 20.7469 48.6115 21.0263 48.8388C21.3056 49.0637 21.5329 49.3395 21.7081 49.6662C21.8857 49.9929 21.9993 50.3669 22.049 50.7883ZM25.5877 55.6214C25.0361 55.6214 24.5591 55.5042 24.1566 55.2699C23.7565 55.0331 23.4476 54.704 23.2298 54.2826C23.012 53.8589 22.9031 53.3676 22.9031 52.8089C22.9031 52.2455 23.012 51.7531 23.2298 51.3317C23.4476 50.9079 23.7565 50.5788 24.1566 50.3444C24.5591 50.1077 25.0361 49.9893 25.5877 49.9893C26.1393 49.9893 26.6152 50.1077 27.0153 50.3444C27.4177 50.5788 27.7279 50.9079 27.9457 51.3317C28.1635 51.7531 28.2724 52.2455 28.2724 52.8089C28.2724 53.3676 28.1635 53.8589 27.9457 54.2826C27.7279 54.704 27.4177 55.0331 27.0153 55.2699C26.6152 55.5042 26.1393 55.6214 25.5877 55.6214ZM25.5948 54.4496C25.8458 54.4496 26.0553 54.3785 26.2234 54.2365C26.3915 54.0921 26.5181 53.8956 26.6033 53.647C26.6909 53.3984 26.7347 53.1155 26.7347 52.7983C26.7347 52.481 26.6909 52.1981 26.6033 51.9496C26.5181 51.701 26.3915 51.5045 26.2234 51.3601C26.0553 51.2156 25.8458 51.1434 25.5948 51.1434C25.3415 51.1434 25.1284 51.2156 24.9556 51.3601C24.7852 51.5045 24.6561 51.701 24.5685 51.9496C24.4833 52.1981 24.4407 52.481 24.4407 52.7983C24.4407 53.1155 24.4833 53.3984 24.5685 53.647C24.6561 53.8956 24.7852 54.0921 24.9556 54.2365C25.1284 54.3785 25.3415 54.4496 25.5948 54.4496ZM30.7688 52.3615V55.5149H29.256V50.0603H30.6978V51.0227H30.7617C30.8825 50.7055 31.0849 50.4545 31.369 50.2699C31.6531 50.0828 31.9975 49.9893 32.4023 49.9893C32.7811 49.9893 33.1114 50.0722 33.3931 50.2379C33.6748 50.4036 33.8938 50.6404 34.0501 50.9481C34.2063 51.2535 34.2844 51.6181 34.2844 52.0419V55.5149H32.7717V52.3118C32.774 51.978 32.6888 51.7175 32.516 51.5305C32.3432 51.3411 32.1052 51.2464 31.8022 51.2464C31.5986 51.2464 31.4187 51.2902 31.2624 51.3778C31.1085 51.4654 30.9878 51.5933 30.9002 51.7613C30.815 51.9271 30.7712 52.1271 30.7688 52.3615ZM40.0151 51.6157L38.6301 51.701C38.6065 51.5826 38.5556 51.4761 38.4775 51.3814C38.3993 51.2843 38.2963 51.2074 38.1685 51.1505C38.043 51.0914 37.8927 51.0618 37.7175 51.0618C37.4831 51.0618 37.2855 51.1115 37.1245 51.2109C36.9635 51.308 36.883 51.4382 36.883 51.6015C36.883 51.7317 36.9351 51.8418 37.0392 51.9318C37.1434 52.0218 37.3221 52.094 37.5755 52.1484L38.5627 52.3473C39.093 52.4562 39.4883 52.6314 39.7488 52.8728C40.0092 53.1143 40.1394 53.4316 40.1394 53.8246C40.1394 54.182 40.034 54.4957 39.8233 54.7656C39.615 55.0355 39.3285 55.2462 38.964 55.3977C38.6017 55.5469 38.1839 55.6214 37.7104 55.6214C36.9883 55.6214 36.4131 55.4711 35.9846 55.1704C35.5584 54.8674 35.3087 54.4555 35.2353 53.9346L36.7232 53.8565C36.7682 54.0767 36.8771 54.2448 37.0499 54.3608C37.2227 54.4744 37.4441 54.5312 37.714 54.5312C37.9791 54.5312 38.1922 54.4803 38.3532 54.3785C38.5165 54.2744 38.5994 54.1406 38.6017 53.9773C38.5994 53.8399 38.5414 53.7275 38.4277 53.6399C38.3141 53.5499 38.1389 53.4813 37.9022 53.4339L36.9576 53.2457C36.4249 53.1392 36.0283 52.9545 35.7679 52.6917C35.5099 52.429 35.3809 52.094 35.3809 51.6868C35.3809 51.3364 35.4756 51.0345 35.665 50.7812C35.8567 50.5279 36.1254 50.3326 36.4711 50.1953C36.8191 50.058 37.2263 49.9893 37.6926 49.9893C38.3816 49.9893 38.9237 50.1349 39.3191 50.4261C39.7168 50.7173 39.9488 51.1139 40.0151 51.6157ZM44.5898 53.1924V50.0603H46.1026V55.5149H44.6502V54.5241H44.5934C44.4703 54.8437 44.2655 55.1006 43.979 55.2947C43.695 55.4889 43.3481 55.5859 42.9386 55.5859C42.574 55.5859 42.2532 55.5031 41.9762 55.3373C41.6992 55.1716 41.4826 54.9361 41.3263 54.6307C41.1725 54.3253 41.0943 53.9595 41.092 53.5334V50.0603H42.6048V53.2635C42.6071 53.5854 42.6935 53.8399 42.864 54.027C43.0344 54.214 43.2629 54.3075 43.5494 54.3075C43.7317 54.3075 43.9021 54.2661 44.0607 54.1832C44.2193 54.098 44.3472 53.9725 44.4442 53.8068C44.5437 53.6411 44.5922 53.4363 44.5898 53.1924ZM48.8255 48.2422V55.5149H47.3127V48.2422H48.8255ZM52.9386 50.0603V51.1967H49.6538V50.0603H52.9386ZM50.3995 48.7535H51.9123V53.8388C51.9123 53.9784 51.9336 54.0873 51.9762 54.1655C52.0188 54.2412 52.078 54.2945 52.1538 54.3253C52.2319 54.356 52.3219 54.3714 52.4237 54.3714C52.4947 54.3714 52.5657 54.3655 52.6367 54.3537C52.7077 54.3395 52.7622 54.3288 52.8001 54.3217L53.038 55.4474C52.9622 55.4711 52.8557 55.4983 52.7184 55.5291C52.5811 55.5622 52.4142 55.5824 52.2177 55.5895C51.8531 55.6037 51.5335 55.5551 51.2589 55.4439C50.9866 55.3326 50.7747 55.1598 50.6232 54.9254C50.4717 54.691 50.3971 54.3951 50.3995 54.0376V48.7535ZM56.3299 55.6214C55.7783 55.6214 55.3013 55.5042 54.8988 55.2699C54.4987 55.0331 54.1897 54.704 53.9719 54.2826C53.7541 53.8589 53.6452 53.3676 53.6452 52.8089C53.6452 52.2455 53.7541 51.7531 53.9719 51.3317C54.1897 50.9079 54.4987 50.5788 54.8988 50.3444C55.3013 50.1077 55.7783 49.9893 56.3299 49.9893C56.8815 49.9893 57.3574 50.1077 57.7575 50.3444C58.1599 50.5788 58.4701 50.9079 58.6879 51.3317C58.9057 51.7531 59.0146 52.2455 59.0146 52.8089C59.0146 53.3676 58.9057 53.8589 58.6879 54.2826C58.4701 54.704 58.1599 55.0331 57.7575 55.2699C57.3574 55.5042 56.8815 55.6214 56.3299 55.6214ZM56.337 54.4496C56.5879 54.4496 56.7975 54.3785 56.9656 54.2365C57.1336 54.0921 57.2603 53.8956 57.3455 53.647C57.4331 53.3984 57.4769 53.1155 57.4769 52.7983C57.4769 52.481 57.4331 52.1981 57.3455 51.9496C57.2603 51.701 57.1336 51.5045 56.9656 51.3601C56.7975 51.2156 56.5879 51.1434 56.337 51.1434C56.0837 51.1434 55.8706 51.2156 55.6978 51.3601C55.5273 51.5045 55.3983 51.701 55.3107 51.9496C55.2255 52.1981 55.1829 52.481 55.1829 52.7983C55.1829 53.1155 55.2255 53.3984 55.3107 53.647C55.3983 53.8956 55.5273 54.0921 55.6978 54.2365C55.8706 54.3785 56.0837 54.4496 56.337 54.4496ZM59.9982 55.5149V50.0603H61.4648V51.0121H61.5217C61.6211 50.6735 61.788 50.4178 62.0224 50.245C62.2567 50.0698 62.5266 49.9822 62.832 49.9822C62.9078 49.9822 62.9895 49.987 63.0771 49.9964C63.1647 50.0059 63.2416 50.0189 63.3079 50.0355V51.3778C63.2369 51.3565 63.1386 51.3376 63.0131 51.321C62.8877 51.3044 62.7728 51.2961 62.6687 51.2961C62.4461 51.2961 62.2473 51.3447 62.0721 51.4417C61.8993 51.5364 61.762 51.669 61.6602 51.8395C61.5607 52.0099 61.511 52.2064 61.511 52.429V55.5149H59.9982ZM64.09 55.5149V50.0603H65.6028V55.5149H64.09ZM64.3066 49.3572L65.0595 47.7415H66.4586L65.3755 49.3572H64.3066ZM68.37 55.6179C68.022 55.6179 67.7119 55.5575 67.4396 55.4368C67.1674 55.3137 66.9519 55.1326 66.7933 54.8934C66.6371 54.652 66.5589 54.3513 66.5589 53.9915C66.5589 53.6884 66.6146 53.4339 66.7259 53.228C66.8371 53.022 66.9886 52.8563 67.1804 52.7308C67.3722 52.6053 67.59 52.5106 67.8338 52.4467C68.08 52.3828 68.3381 52.3378 68.608 52.3118C68.9252 52.2786 69.1809 52.2478 69.375 52.2194C69.5691 52.1887 69.71 52.1437 69.7976 52.0845C69.8852 52.0253 69.929 51.9377 69.929 51.8217V51.8004C69.929 51.5755 69.858 51.4015 69.7159 51.2784C69.5762 51.1553 69.3774 51.0937 69.1193 51.0937C68.8471 51.0937 68.6304 51.1541 68.4695 51.2748C68.3085 51.3932 68.2019 51.5424 68.1499 51.7223L66.7507 51.6086C66.8217 51.2772 66.9614 50.9907 67.1697 50.7493C67.3781 50.5054 67.6468 50.3184 67.9759 50.1882C68.3073 50.0556 68.6908 49.9893 69.1264 49.9893C69.4295 49.9893 69.7195 50.0248 69.9964 50.0959C70.2758 50.1669 70.5232 50.277 70.7386 50.4261C70.9564 50.5753 71.1281 50.767 71.2536 51.0014C71.379 51.2334 71.4418 51.5116 71.4418 51.8359V55.5149H70.0071V54.7585H69.9645C69.8769 54.929 69.7597 55.0793 69.6129 55.2095C69.4661 55.3373 69.2898 55.438 69.0838 55.5113C68.8778 55.5824 68.6399 55.6179 68.37 55.6179ZM68.8033 54.5738C69.0258 54.5738 69.2223 54.53 69.3928 54.4424C69.5632 54.3525 69.697 54.2317 69.794 54.0802C69.8911 53.9287 69.9396 53.7571 69.9396 53.5653V52.9865C69.8923 53.0173 69.8272 53.0457 69.7443 53.0717C69.6638 53.0954 69.5727 53.1179 69.4709 53.1392C69.3691 53.1581 69.2673 53.1759 69.1655 53.1924C69.0637 53.2067 68.9714 53.2197 68.8885 53.2315C68.7109 53.2576 68.5559 53.299 68.4233 53.3558C68.2907 53.4126 68.1877 53.4896 68.1143 53.5866C68.041 53.6813 68.0043 53.7997 68.0043 53.9417C68.0043 54.1477 68.0788 54.3051 68.228 54.414C68.3795 54.5206 68.5713 54.5738 68.8033 54.5738ZM18.505 62.0603V63.1967H15.2202V62.0603H18.505ZM15.9659 60.7535H17.4787V65.8388C17.4787 65.9784 17.5 66.0873 17.5426 66.1655C17.5852 66.2412 17.6444 66.2945 17.7202 66.3253C17.7983 66.356 17.8883 66.3714 17.9901 66.3714C18.0611 66.3714 18.1321 66.3655 18.2031 66.3537C18.2741 66.3395 18.3286 66.3288 18.3665 66.3217L18.6044 67.4474C18.5286 67.4711 18.4221 67.4983 18.2848 67.5291C18.1475 67.5622 17.9806 67.5824 17.7841 67.5895C17.4195 67.6037 17.0999 67.5551 16.8253 67.4439C16.553 67.3326 16.3411 67.1598 16.1896 66.9254C16.0381 66.691 15.9635 66.3951 15.9659 66.0376V60.7535ZM21.9176 67.6214C21.3565 67.6214 20.8736 67.5078 20.4688 67.2805C20.0663 67.0509 19.7562 66.7265 19.5384 66.3075C19.3205 65.8861 19.2116 65.3878 19.2116 64.8125C19.2116 64.2514 19.3205 63.759 19.5384 63.3352C19.7562 62.9114 20.0627 62.5812 20.4581 62.3444C20.8558 62.1077 21.3222 61.9893 21.8572 61.9893C22.2171 61.9893 22.5521 62.0473 22.8622 62.1633C23.1747 62.277 23.447 62.4486 23.679 62.6782C23.9134 62.9079 24.0956 63.1967 24.2259 63.5447C24.3561 63.8904 24.4212 64.2952 24.4212 64.7592V65.1747H19.8153V64.2372H22.9972C22.9972 64.0194 22.9498 63.8264 22.8551 63.6584C22.7604 63.4903 22.629 63.3589 22.4609 63.2642C22.2952 63.1671 22.1023 63.1186 21.8821 63.1186C21.6525 63.1186 21.4489 63.1719 21.2713 63.2784C21.0961 63.3826 20.9588 63.5234 20.8594 63.701C20.7599 63.8762 20.709 64.0715 20.7067 64.2869V65.1782C20.7067 65.4481 20.7564 65.6813 20.8558 65.8778C20.9576 66.0743 21.1009 66.2258 21.2855 66.3324C21.4702 66.4389 21.6892 66.4922 21.9425 66.4922C22.1106 66.4922 22.2644 66.4685 22.4041 66.4211C22.5438 66.3738 22.6634 66.3028 22.7628 66.2081C22.8622 66.1134 22.938 65.9974 22.9901 65.8601L24.3892 65.9524C24.3182 66.2886 24.1726 66.5821 23.9524 66.8331C23.7346 67.0817 23.4529 67.2758 23.1072 67.4155C22.764 67.5528 22.3674 67.6214 21.9176 67.6214ZM27.8729 67.6214C27.3142 67.6214 26.8336 67.5031 26.4311 67.2663C26.031 67.0272 25.7232 66.6958 25.5078 66.272C25.2947 65.8482 25.1882 65.3605 25.1882 64.8089C25.1882 64.2502 25.2959 63.7602 25.5114 63.3388C25.7292 62.915 26.0381 62.5847 26.4382 62.348C26.8383 62.1089 27.3142 61.9893 27.8658 61.9893C28.3416 61.9893 28.7583 62.0757 29.1158 62.2486C29.4732 62.4214 29.7562 62.664 29.9645 62.9765C30.1728 63.289 30.2876 63.656 30.3089 64.0774H28.8814C28.8411 63.8051 28.7346 63.5862 28.5618 63.4204C28.3913 63.2523 28.1676 63.1683 27.8906 63.1683C27.6562 63.1683 27.4515 63.2322 27.2763 63.3601C27.1035 63.4855 26.9685 63.669 26.8714 63.9105C26.7744 64.152 26.7259 64.4443 26.7259 64.7876C26.7259 65.1356 26.7732 65.4316 26.8679 65.6754C26.965 65.9192 27.1011 66.1051 27.2763 66.2329C27.4515 66.3608 27.6562 66.4247 27.8906 66.4247C28.0634 66.4247 28.2185 66.3892 28.3558 66.3182C28.4955 66.2471 28.6103 66.1442 28.7003 66.0092C28.7926 65.8719 28.853 65.7074 28.8814 65.5156H30.3089C30.2853 65.9323 30.1716 66.2992 29.968 66.6165C29.7668 66.9313 29.4886 67.1775 29.1335 67.3551C28.7784 67.5326 28.3582 67.6214 27.8729 67.6214ZM32.7903 64.3615V67.5149H31.2775V62.0603H32.7193V63.0227H32.7832C32.9039 62.7055 33.1064 62.4545 33.3904 62.2699C33.6745 62.0828 34.019 61.9893 34.4238 61.9893C34.8026 61.9893 35.1329 62.0722 35.4146 62.2379C35.6963 62.4036 35.9153 62.6404 36.0716 62.9481C36.2278 63.2535 36.3059 63.6181 36.3059 64.0419V67.5149H34.7931V64.3118C34.7955 63.978 34.7103 63.7175 34.5375 63.5305C34.3646 63.3411 34.1267 63.2464 33.8237 63.2464C33.6201 63.2464 33.4402 63.2902 33.2839 63.3778C33.13 63.4654 33.0093 63.5933 32.9217 63.7613C32.8365 63.9271 32.7927 64.1271 32.7903 64.3615ZM39.9627 67.6214C39.4111 67.6214 38.9341 67.5042 38.5316 67.2699C38.1315 67.0331 37.8226 66.704 37.6048 66.2826C37.387 65.8589 37.2781 65.3676 37.2781 64.8089C37.2781 64.2455 37.387 63.7531 37.6048 63.3317C37.8226 62.9079 38.1315 62.5788 38.5316 62.3444C38.9341 62.1077 39.4111 61.9893 39.9627 61.9893C40.5143 61.9893 40.9902 62.1077 41.3903 62.3444C41.7927 62.5788 42.1029 62.9079 42.3207 63.3317C42.5385 63.7531 42.6474 64.2455 42.6474 64.8089C42.6474 65.3676 42.5385 65.8589 42.3207 66.2826C42.1029 66.704 41.7927 67.0331 41.3903 67.2699C40.9902 67.5042 40.5143 67.6214 39.9627 67.6214ZM39.9698 66.4496C40.2208 66.4496 40.4303 66.3785 40.5984 66.2365C40.7665 66.0921 40.8931 65.8956 40.9783 65.647C41.0659 65.3984 41.1097 65.1155 41.1097 64.7983C41.1097 64.481 41.0659 64.1981 40.9783 63.9496C40.8931 63.701 40.7665 63.5045 40.5984 63.3601C40.4303 63.2156 40.2208 63.1434 39.9698 63.1434C39.7165 63.1434 39.5034 63.2156 39.3306 63.3601C39.1602 63.5045 39.0311 63.701 38.9435 63.9496C38.8583 64.1981 38.8157 64.481 38.8157 64.7983C38.8157 65.1155 38.8583 65.3984 38.9435 65.647C39.0311 65.8956 39.1602 66.0921 39.3306 66.2365C39.5034 66.3785 39.7165 66.4496 39.9698 66.4496ZM45.1438 60.2422V67.5149H43.631V60.2422H45.1438ZM48.8201 67.6214C48.2685 67.6214 47.7915 67.5042 47.389 67.2699C46.9889 67.0331 46.68 66.704 46.4622 66.2826C46.2444 65.8589 46.1355 65.3676 46.1355 64.8089C46.1355 64.2455 46.2444 63.7531 46.4622 63.3317C46.68 62.9079 46.9889 62.5788 47.389 62.3444C47.7915 62.1077 48.2685 61.9893 48.8201 61.9893C49.3717 61.9893 49.8476 62.1077 50.2477 62.3444C50.6502 62.5788 50.9603 62.9079 51.1781 63.3317C51.3959 63.7531 51.5048 64.2455 51.5048 64.8089C51.5048 65.3676 51.3959 65.8589 51.1781 66.2826C50.9603 66.704 50.6502 67.0331 50.2477 67.2699C49.8476 67.5042 49.3717 67.6214 48.8201 67.6214ZM48.8272 66.4496C49.0782 66.4496 49.2877 66.3785 49.4558 66.2365C49.6239 66.0921 49.7505 65.8956 49.8358 65.647C49.9234 65.3984 49.9672 65.1155 49.9672 64.7983C49.9672 64.481 49.9234 64.1981 49.8358 63.9496C49.7505 63.701 49.6239 63.5045 49.4558 63.3601C49.2877 63.2156 49.0782 63.1434 48.8272 63.1434C48.5739 63.1434 48.3609 63.2156 48.188 63.3601C48.0176 63.5045 47.8886 63.701 47.801 63.9496C47.7157 64.1981 47.6731 64.481 47.6731 64.7983C47.6731 65.1155 47.7157 65.3984 47.801 65.647C47.8886 65.8956 48.0176 66.0921 48.188 66.2365C48.3609 66.3785 48.5739 66.4496 48.8272 66.4496ZM48.2768 61.3572L49.0297 59.7415H50.4288L49.3457 61.3572H48.2768ZM54.9458 69.674C54.4558 69.674 54.0356 69.6065 53.6852 69.4716C53.3372 69.339 53.0602 69.1579 52.8542 68.9282C52.6483 68.6986 52.5145 68.4406 52.4529 68.1541L53.8521 67.9659C53.8947 68.0748 53.9622 68.1766 54.0545 68.2713C54.1468 68.366 54.2688 68.4417 54.4203 68.4986C54.5742 68.5577 54.7612 68.5873 54.9814 68.5873C55.3104 68.5873 55.5815 68.5068 55.7946 68.3459C56.01 68.1872 56.1177 67.9209 56.1177 67.5469V66.549H56.0538C55.9875 66.7005 55.8881 66.8437 55.7555 66.9787C55.6229 67.1136 55.4525 67.2237 55.2441 67.3089C55.0358 67.3942 54.7872 67.4368 54.4984 67.4368C54.0888 67.4368 53.716 67.3421 53.3798 67.1527C53.046 66.9609 52.7797 66.6685 52.5808 66.2755C52.3843 65.8802 52.286 65.3807 52.286 64.777C52.286 64.1591 52.3867 63.643 52.5879 63.2287C52.7891 62.8144 53.0566 62.5042 53.3904 62.2983C53.7266 62.0923 54.0948 61.9893 54.4949 61.9893C54.8002 61.9893 55.0559 62.0414 55.2619 62.1456C55.4679 62.2474 55.6336 62.3752 55.7591 62.5291C55.8869 62.6806 55.9851 62.8298 56.0538 62.9765H56.1106V62.0603H57.6127V67.5682C57.6127 68.0322 57.4991 68.4204 57.2718 68.7329C57.0446 69.0454 56.7297 69.2798 56.3272 69.4361C55.9271 69.5947 55.4667 69.674 54.9458 69.674ZM54.9778 66.3004C55.2217 66.3004 55.4276 66.24 55.5957 66.1193C55.7662 65.9962 55.8964 65.821 55.9863 65.5937C56.0787 65.3641 56.1248 65.0895 56.1248 64.7699C56.1248 64.4503 56.0798 64.1733 55.9899 63.9389C55.8999 63.7022 55.7697 63.5187 55.5993 63.3885C55.4288 63.2583 55.2217 63.1932 54.9778 63.1932C54.7292 63.1932 54.5197 63.2606 54.3493 63.3956C54.1788 63.5281 54.0498 63.7128 53.9622 63.9496C53.8746 64.1863 53.8308 64.4597 53.8308 64.7699C53.8308 65.0847 53.8746 65.357 53.9622 65.5866C54.0521 65.8139 54.1812 65.9903 54.3493 66.1157C54.5197 66.2389 54.7292 66.3004 54.9778 66.3004ZM58.8166 67.5149V62.0603H60.3294V67.5149H58.8166ZM59.5765 61.3572C59.3516 61.3572 59.1587 61.2826 58.9977 61.1335C58.8391 60.982 58.7598 60.8009 58.7598 60.5902C58.7598 60.3818 58.8391 60.2031 58.9977 60.054C59.1587 59.9024 59.3516 59.8267 59.5765 59.8267C59.8014 59.8267 59.9932 59.9024 60.1518 60.054C60.3128 60.2031 60.3933 60.3818 60.3933 60.5902C60.3933 60.8009 60.3128 60.982 60.1518 61.1335C59.9932 61.2826 59.8014 61.3572 59.5765 61.3572ZM64.0057 67.6214C63.447 67.6214 62.9664 67.5031 62.5639 67.2663C62.1638 67.0272 61.8561 66.6958 61.6406 66.272C61.4276 65.8482 61.321 65.3605 61.321 64.8089C61.321 64.2502 61.4287 63.7602 61.6442 63.3388C61.862 62.915 62.1709 62.5847 62.571 62.348C62.9711 62.1089 63.447 61.9893 63.9986 61.9893C64.4744 61.9893 64.8911 62.0757 65.2486 62.2486C65.6061 62.4214 65.889 62.664 66.0973 62.9765C66.3056 63.289 66.4205 63.656 66.4418 64.0774H65.0142C64.974 63.8051 64.8674 63.5862 64.6946 63.4204C64.5241 63.2523 64.3004 63.1683 64.0234 63.1683C63.7891 63.1683 63.5843 63.2322 63.4091 63.3601C63.2363 63.4855 63.1013 63.669 63.0043 63.9105C62.9072 64.152 62.8587 64.4443 62.8587 64.7876C62.8587 65.1356 62.906 65.4316 63.0007 65.6754C63.0978 65.9192 63.2339 66.1051 63.4091 66.2329C63.5843 66.3608 63.7891 66.4247 64.0234 66.4247C64.1963 66.4247 64.3513 66.3892 64.4886 66.3182C64.6283 66.2471 64.7431 66.1442 64.8331 66.0092C64.9254 65.8719 64.9858 65.7074 65.0142 65.5156H66.4418C66.4181 65.9323 66.3045 66.2992 66.1009 66.6165C65.8996 66.9313 65.6214 67.1775 65.2663 67.3551C64.9112 67.5326 64.491 67.6214 64.0057 67.6214ZM68.9657 67.6179C68.6177 67.6179 68.3076 67.5575 68.0353 67.4368C67.7631 67.3137 67.5476 67.1326 67.389 66.8934C67.2328 66.652 67.1547 66.3513 67.1547 65.9915C67.1547 65.6884 67.2103 65.4339 67.3216 65.228C67.4328 65.022 67.5843 64.8563 67.7761 64.7308C67.9679 64.6053 68.1857 64.5106 68.4295 64.4467C68.6757 64.3828 68.9338 64.3378 69.2037 64.3118C69.5209 64.2786 69.7766 64.2478 69.9707 64.2194C70.1648 64.1887 70.3057 64.1437 70.3933 64.0845C70.4809 64.0253 70.5247 63.9377 70.5247 63.8217V63.8004C70.5247 63.5755 70.4537 63.4015 70.3116 63.2784C70.1719 63.1553 69.9731 63.0937 69.715 63.0937C69.4428 63.0937 69.2261 63.1541 69.0652 63.2748C68.9042 63.3932 68.7976 63.5424 68.7456 63.7223L67.3464 63.6086C67.4174 63.2772 67.5571 62.9907 67.7654 62.7493C67.9738 62.5054 68.2425 62.3184 68.5716 62.1882C68.903 62.0556 69.2865 61.9893 69.7221 61.9893C70.0252 61.9893 70.3152 62.0248 70.5922 62.0959C70.8715 62.1669 71.1189 62.277 71.3343 62.4261C71.5521 62.5753 71.7238 62.767 71.8493 63.0014C71.9747 63.2334 72.0375 63.5116 72.0375 63.8359V67.5149H70.6028V66.7585H70.5602C70.4726 66.929 70.3554 67.0793 70.2086 67.2095C70.0618 67.3373 69.8855 67.438 69.6795 67.5113C69.4735 67.5824 69.2356 67.6179 68.9657 67.6179ZM69.399 66.5738C69.6215 66.5738 69.818 66.53 69.9885 66.4424C70.1589 66.3525 70.2927 66.2317 70.3897 66.0802C70.4868 65.9287 70.5353 65.7571 70.5353 65.5653V64.9865C70.488 65.0173 70.4229 65.0457 70.34 65.0717C70.2595 65.0954 70.1684 65.1179 70.0666 65.1392C69.9648 65.1581 69.863 65.1759 69.7612 65.1924C69.6594 65.2067 69.5671 65.2197 69.4842 65.2315C69.3066 65.2576 69.1516 65.299 69.019 65.3558C68.8864 65.4126 68.7834 65.4896 68.71 65.5866C68.6367 65.6813 68.6 65.7997 68.6 65.9417C68.6 66.1477 68.6745 66.3051 68.8237 66.414C68.9752 66.5206 69.167 66.5738 69.399 66.5738Z" fill="white"/>
<path d="M66.3302 0H97.4717C102.995 0 107.472 4.47715 107.472 10V32.2706H95.3302C79.314 32.2706 66.3302 19.2868 66.3302 3.27058V0Z" fill="#FF7648"/>
<path d="M88.9167 11.1259H97.0833M97.0833 11.1259L93 6.99585M97.0833 11.1259L93 15.2559" stroke="white" stroke-width="1.6" stroke-linecap="round" stroke-linejoin="round"/>
</svg>
