<svg width="108" height="91" viewBox="0 0 108 91" fill="none" xmlns="http://www.w3.org/2000/svg">
<rect y="0.624023" width="107.472" height="90.018" rx="14" fill="#FF7648"/>
<path d="M18.2102 56.1387H15.6321V48.8659H18.2315C18.9631 48.8659 19.5928 49.0115 20.1207 49.3027C20.6487 49.5916 21.0547 50.007 21.3388 50.5492C21.6252 51.0913 21.7685 51.74 21.7685 52.4952C21.7685 53.2528 21.6252 53.9038 21.3388 54.4483C21.0547 54.9928 20.6463 55.4107 20.1136 55.7019C19.5833 55.9931 18.9489 56.1387 18.2102 56.1387ZM17.1697 54.8212H18.1463C18.6009 54.8212 18.9832 54.7407 19.2933 54.5797C19.6058 54.4164 19.8402 54.1642 19.9964 53.8233C20.1551 53.4801 20.2344 53.0373 20.2344 52.4952C20.2344 51.9578 20.1551 51.5186 19.9964 51.1777C19.8402 50.8368 19.607 50.5859 19.2969 50.4249C18.9867 50.2639 18.6044 50.1834 18.1499 50.1834H17.1697V54.8212ZM25.3649 56.2452C24.8038 56.2452 24.3208 56.1316 23.916 55.9043C23.5136 55.6747 23.2034 55.3503 22.9856 54.9313C22.7678 54.5099 22.6589 54.0115 22.6589 53.4363C22.6589 52.8752 22.7678 52.3828 22.9856 51.959C23.2034 51.5352 23.51 51.205 23.9054 50.9682C24.3031 50.7315 24.7695 50.6131 25.3045 50.6131C25.6644 50.6131 25.9993 50.6711 26.3095 50.7871C26.622 50.9007 26.8942 51.0724 27.1262 51.302C27.3606 51.5317 27.5429 51.8205 27.6731 52.1685C27.8033 52.5141 27.8684 52.919 27.8684 53.383V53.7985H23.2626V52.861H26.4444C26.4444 52.6432 26.3971 52.4502 26.3024 52.2821C26.2077 52.1141 26.0763 51.9827 25.9082 51.888C25.7425 51.7909 25.5495 51.7424 25.3294 51.7424C25.0997 51.7424 24.8961 51.7956 24.7186 51.9022C24.5434 52.0063 24.4061 52.1472 24.3066 52.3248C24.2072 52.4999 24.1563 52.6953 24.1539 52.9107V53.802C24.1539 54.0719 24.2037 54.3051 24.3031 54.5016C24.4049 54.6981 24.5481 54.8496 24.7328 54.9561C24.9174 55.0627 25.1364 55.1159 25.3897 55.1159C25.5578 55.1159 25.7117 55.0923 25.8514 55.0449C25.9911 54.9976 26.1106 54.9266 26.21 54.8319C26.3095 54.7372 26.3852 54.6212 26.4373 54.4838L27.8365 54.5762C27.7654 54.9123 27.6199 55.2059 27.3997 55.4569C27.1819 55.7054 26.9002 55.8996 26.5545 56.0392C26.2112 56.1766 25.8147 56.2452 25.3649 56.2452ZM33.394 52.2395L32.0091 52.3248C31.9854 52.2064 31.9345 52.0998 31.8564 52.0051C31.7782 51.9081 31.6752 51.8311 31.5474 51.7743C31.4219 51.7151 31.2716 51.6855 31.0964 51.6855C30.862 51.6855 30.6644 51.7353 30.5034 51.8347C30.3424 51.9318 30.2619 52.062 30.2619 52.2253C30.2619 52.3555 30.314 52.4656 30.4181 52.5556C30.5223 52.6455 30.7011 52.7177 30.9544 52.7722L31.9416 52.9711C32.4719 53.08 32.8672 53.2551 33.1277 53.4966C33.3881 53.7381 33.5183 54.0553 33.5183 54.4483C33.5183 54.8058 33.4129 55.1195 33.2022 55.3894C32.9939 55.6593 32.7074 55.87 32.3429 56.0215C31.9806 56.1706 31.5628 56.2452 31.0893 56.2452C30.3672 56.2452 29.792 56.0949 29.3635 55.7942C28.9373 55.4912 28.6876 55.0792 28.6142 54.5584L30.1021 54.4803C30.1471 54.7005 30.256 54.8685 30.4288 54.9846C30.6016 55.0982 30.823 55.155 31.0929 55.155C31.358 55.155 31.5711 55.1041 31.7321 55.0023C31.8954 54.8981 31.9783 54.7644 31.9806 54.601C31.9783 54.4637 31.9203 54.3513 31.8066 54.2637C31.693 54.1737 31.5178 54.1051 31.2811 54.0577L30.3365 53.8695C29.8038 53.763 29.4073 53.5783 29.1468 53.3155C28.8888 53.0527 28.7598 52.7177 28.7598 52.3105C28.7598 51.9602 28.8545 51.6583 29.0439 51.405C29.2356 51.1517 29.5043 50.9564 29.85 50.8191C30.198 50.6818 30.6052 50.6131 31.0716 50.6131C31.7605 50.6131 32.3026 50.7587 32.698 51.0499C33.0957 51.3411 33.3277 51.7376 33.394 52.2395ZM36.0263 56.2417C35.6783 56.2417 35.3681 56.1813 35.0959 56.0605C34.8236 55.9374 34.6082 55.7563 34.4496 55.5172C34.2933 55.2757 34.2152 54.9751 34.2152 54.6152C34.2152 54.3122 34.2708 54.0577 34.3821 53.8517C34.4934 53.6458 34.6449 53.4801 34.8366 53.3546C35.0284 53.2291 35.2462 53.1344 35.4901 53.0705C35.7363 53.0066 35.9943 52.9616 36.2642 52.9355C36.5814 52.9024 36.8371 52.8716 37.0312 52.8432C37.2254 52.8124 37.3662 52.7675 37.4538 52.7083C37.5414 52.6491 37.5852 52.5615 37.5852 52.4455V52.4242C37.5852 52.1993 37.5142 52.0253 37.3722 51.9022C37.2325 51.7791 37.0336 51.7175 36.7756 51.7175C36.5033 51.7175 36.2867 51.7779 36.1257 51.8986C35.9647 52.017 35.8582 52.1661 35.8061 52.3461L34.407 52.2324C34.478 51.901 34.6177 51.6145 34.826 51.373C35.0343 51.1292 35.303 50.9422 35.6321 50.812C35.9635 50.6794 36.3471 50.6131 36.7827 50.6131C37.0857 50.6131 37.3757 50.6486 37.6527 50.7196C37.9321 50.7907 38.1795 50.9007 38.3949 51.0499C38.6127 51.199 38.7843 51.3908 38.9098 51.6252C39.0353 51.8572 39.098 52.1354 39.098 52.4597V56.1387H37.6634V55.3823H37.6207C37.5331 55.5527 37.416 55.7031 37.2692 55.8333C37.1224 55.9611 36.946 56.0617 36.7401 56.1351C36.5341 56.2061 36.2962 56.2417 36.0263 56.2417ZM36.4595 55.1976C36.6821 55.1976 36.8786 55.1538 37.049 55.0662C37.2195 54.9763 37.3532 54.8555 37.4503 54.704C37.5473 54.5525 37.5959 54.3809 37.5959 54.1891V53.6103C37.5485 53.641 37.4834 53.6694 37.4006 53.6955C37.3201 53.7192 37.2289 53.7417 37.1271 53.763C37.0253 53.7819 36.9235 53.7997 36.8217 53.8162C36.7199 53.8304 36.6276 53.8435 36.5447 53.8553C36.3672 53.8813 36.2121 53.9228 36.0795 53.9796C35.947 54.0364 35.844 54.1133 35.7706 54.2104C35.6972 54.3051 35.6605 54.4235 35.6605 54.5655C35.6605 54.7715 35.7351 54.9289 35.8842 55.0378C36.0357 55.1444 36.2275 55.1976 36.4595 55.1976ZM40.2717 56.1387V50.6841H41.7383V51.6358H41.7951C41.8945 51.2973 42.0614 51.0416 42.2958 50.8688C42.5302 50.6936 42.8001 50.606 43.1055 50.606C43.1812 50.606 43.2629 50.6107 43.3505 50.6202C43.4381 50.6297 43.515 50.6427 43.5813 50.6593V52.0016C43.5103 51.9803 43.4121 51.9614 43.2866 51.9448C43.1611 51.9282 43.0463 51.9199 42.9421 51.9199C42.7196 51.9199 42.5207 51.9685 42.3455 52.0655C42.1727 52.1602 42.0354 52.2928 41.9336 52.4632C41.8342 52.6337 41.7844 52.8302 41.7844 53.0527V56.1387H40.2717ZM44.3635 56.1387V50.6841H45.8301V51.6358H45.8869C45.9863 51.2973 46.1532 51.0416 46.3876 50.8688C46.622 50.6936 46.8919 50.606 47.1973 50.606C47.273 50.606 47.3547 50.6107 47.4423 50.6202C47.5299 50.6297 47.6068 50.6427 47.6731 50.6593V52.0016C47.6021 51.9803 47.5038 51.9614 47.3784 51.9448C47.2529 51.9282 47.1381 51.9199 47.0339 51.9199C46.8114 51.9199 46.6125 51.9685 46.4373 52.0655C46.2645 52.1602 46.1272 52.2928 46.0254 52.4632C45.926 52.6337 45.8762 52.8302 45.8762 53.0527V56.1387H44.3635ZM50.6658 56.2452C50.1142 56.2452 49.6372 56.128 49.2347 55.8936C48.8346 55.6569 48.5257 55.3278 48.3079 54.9064C48.0901 54.4827 47.9812 53.9914 47.9812 53.4327C47.9812 52.8693 48.0901 52.3768 48.3079 51.9554C48.5257 51.5317 48.8346 51.2026 49.2347 50.9682C49.6372 50.7315 50.1142 50.6131 50.6658 50.6131C51.2174 50.6131 51.6933 50.7315 52.0934 50.9682C52.4959 51.2026 52.806 51.5317 53.0238 51.9554C53.2416 52.3768 53.3505 52.8693 53.3505 53.4327C53.3505 53.9914 53.2416 54.4827 53.0238 54.9064C52.806 55.3278 52.4959 55.6569 52.0934 55.8936C51.6933 56.128 51.2174 56.2452 50.6658 56.2452ZM50.6729 55.0733C50.9239 55.0733 51.1334 55.0023 51.3015 54.8603C51.4696 54.7158 51.5962 54.5194 51.6815 54.2708C51.7691 54.0222 51.8129 53.7393 51.8129 53.4221C51.8129 53.1048 51.7691 52.8219 51.6815 52.5733C51.5962 52.3248 51.4696 52.1283 51.3015 51.9838C51.1334 51.8394 50.9239 51.7672 50.6729 51.7672C50.4196 51.7672 50.2066 51.8394 50.0337 51.9838C49.8633 52.1283 49.7343 52.3248 49.6467 52.5733C49.5614 52.8219 49.5188 53.1048 49.5188 53.4221C49.5188 53.7393 49.5614 54.0222 49.6467 54.2708C49.7343 54.5194 49.8633 54.7158 50.0337 54.8603C50.2066 55.0023 50.4196 55.0733 50.6729 55.0733ZM55.8469 48.8659V56.1387H54.3342V48.8659H55.8469ZM58.5716 48.8659V56.1387H57.0588V48.8659H58.5716ZM62.2479 56.2452C61.6963 56.2452 61.2192 56.128 60.8168 55.8936C60.4167 55.6569 60.1077 55.3278 59.8899 54.9064C59.6721 54.4827 59.5632 53.9914 59.5632 53.4327C59.5632 52.8693 59.6721 52.3768 59.8899 51.9554C60.1077 51.5317 60.4167 51.2026 60.8168 50.9682C61.2192 50.7315 61.6963 50.6131 62.2479 50.6131C62.7995 50.6131 63.2753 50.7315 63.6754 50.9682C64.0779 51.2026 64.388 51.5317 64.6058 51.9554C64.8236 52.3768 64.9325 52.8693 64.9325 53.4327C64.9325 53.9914 64.8236 54.4827 64.6058 54.9064C64.388 55.3278 64.0779 55.6569 63.6754 55.8936C63.2753 56.128 62.7995 56.2452 62.2479 56.2452ZM62.255 55.0733C62.5059 55.0733 62.7154 55.0023 62.8835 54.8603C63.0516 54.7158 63.1783 54.5194 63.2635 54.2708C63.3511 54.0222 63.3949 53.7393 63.3949 53.4221C63.3949 53.1048 63.3511 52.8219 63.2635 52.5733C63.1783 52.3248 63.0516 52.1283 62.8835 51.9838C62.7154 51.8394 62.5059 51.7672 62.255 51.7672C62.0017 51.7672 61.7886 51.8394 61.6158 51.9838C61.4453 52.1283 61.3163 52.3248 61.2287 52.5733C61.1435 52.8219 61.1009 53.1048 61.1009 53.4221C61.1009 53.7393 61.1435 54.0222 61.2287 54.2708C61.3163 54.5194 61.4453 54.7158 61.6158 54.8603C61.7886 55.0023 62.0017 55.0733 62.255 55.0733ZM70.2406 56.2275C69.8263 56.2275 69.4511 56.1209 69.1149 55.9078C68.7811 55.6924 68.5159 55.3764 68.3194 54.9597C68.1253 54.5407 68.0282 54.0269 68.0282 53.4185C68.0282 52.7935 68.1288 52.2739 68.3301 51.8596C68.5313 51.4429 68.7988 51.1316 69.1326 50.9256C69.4688 50.7173 69.8369 50.6131 70.237 50.6131C70.5424 50.6131 70.7969 50.6652 71.0005 50.7694C71.2065 50.8712 71.3722 50.999 71.4977 51.1529C71.6255 51.3044 71.7226 51.4535 71.7889 51.6003H71.835V48.8659H73.3443V56.1387H71.8528V55.2651H71.7889C71.7179 55.4166 71.6172 55.5669 71.487 55.7161C71.3592 55.8629 71.1923 55.9848 70.9863 56.0819C70.7827 56.1789 70.5342 56.2275 70.2406 56.2275ZM70.72 55.0236C70.9638 55.0236 71.1698 54.9573 71.3379 54.8248C71.5083 54.6898 71.6386 54.5016 71.7285 54.2601C71.8208 54.0186 71.867 53.7357 71.867 53.4114C71.867 53.0871 71.822 52.8053 71.7321 52.5662C71.6421 52.3271 71.5119 52.1425 71.3414 52.0123C71.171 51.882 70.9638 51.8169 70.72 51.8169C70.4714 51.8169 70.2619 51.8844 70.0914 52.0194C69.921 52.1543 69.792 52.3413 69.7044 52.5804C69.6168 52.8195 69.573 53.0965 69.573 53.4114C69.573 53.7286 69.6168 54.0092 69.7044 54.253C69.7943 54.4945 69.9234 54.6839 70.0914 54.8212C70.2619 54.9561 70.4714 55.0236 70.72 55.0236ZM77.0739 56.2452C76.5128 56.2452 76.0298 56.1316 75.625 55.9043C75.2225 55.6747 74.9124 55.3503 74.6946 54.9313C74.4768 54.5099 74.3679 54.0115 74.3679 53.4363C74.3679 52.8752 74.4768 52.3828 74.6946 51.959C74.9124 51.5352 75.219 51.205 75.6143 50.9682C76.0121 50.7315 76.4785 50.6131 77.0135 50.6131C77.3733 50.6131 77.7083 50.6711 78.0185 50.7871C78.331 50.9007 78.6032 51.0724 78.8352 51.302C79.0696 51.5317 79.2519 51.8205 79.3821 52.1685C79.5123 52.5141 79.5774 52.919 79.5774 53.383V53.7985H74.9716V52.861H78.1534C78.1534 52.6432 78.1061 52.4502 78.0114 52.2821C77.9167 52.1141 77.7853 51.9827 77.6172 51.888C77.4515 51.7909 77.2585 51.7424 77.0384 51.7424C76.8087 51.7424 76.6051 51.7956 76.4276 51.9022C76.2524 52.0063 76.1151 52.1472 76.0156 52.3248C75.9162 52.4999 75.8653 52.6953 75.8629 52.9107V53.802C75.8629 54.0719 75.9126 54.3051 76.0121 54.5016C76.1139 54.6981 76.2571 54.8496 76.4418 54.9561C76.6264 55.0627 76.8454 55.1159 77.0987 55.1159C77.2668 55.1159 77.4207 55.0923 77.5604 55.0449C77.7 54.9976 77.8196 54.9266 77.919 54.8319C78.0185 54.7372 78.0942 54.6212 78.1463 54.4838L79.5455 54.5762C79.4744 54.9123 79.3288 55.2059 79.1087 55.4569C78.8909 55.7054 78.6091 55.8996 78.2635 56.0392C77.9202 56.1766 77.5237 56.2452 77.0739 56.2452ZM16.8857 68.1387H15.2379L17.7486 60.8659H19.7301L22.2372 68.1387H20.5895L18.7678 62.5279H18.7109L16.8857 68.1387ZM16.7827 65.28H20.6747V66.4803H16.7827V65.28ZM23.0842 70.1841V62.6841H24.5756V63.6003H24.6431C24.7094 63.4535 24.8053 63.3044 24.9308 63.1529C25.0586 62.999 25.2243 62.8712 25.4279 62.7694C25.6339 62.6652 25.8896 62.6131 26.195 62.6131C26.5927 62.6131 26.9596 62.7173 27.2958 62.9256C27.632 63.1316 27.9007 63.4429 28.1019 63.8596C28.3031 64.2739 28.4038 64.7935 28.4038 65.4185C28.4038 66.0269 28.3055 66.5407 28.109 66.9597C27.9149 67.3764 27.6497 67.6924 27.3136 67.9078C26.9798 68.1209 26.6057 68.2275 26.1914 68.2275C25.8978 68.2275 25.6481 68.1789 25.4421 68.0819C25.2385 67.9848 25.0716 67.8629 24.9414 67.7161C24.8112 67.5669 24.7118 67.4166 24.6431 67.2651H24.5969V70.1841H23.0842ZM24.565 65.4114C24.565 65.7357 24.61 66.0186 24.6999 66.2601C24.7899 66.5016 24.9201 66.6898 25.0906 66.8248C25.261 66.9573 25.4682 67.0236 25.712 67.0236C25.9582 67.0236 26.1665 66.9561 26.337 66.8212C26.5075 66.6839 26.6365 66.4945 26.7241 66.253C26.814 66.0092 26.859 65.7286 26.859 65.4114C26.859 65.0965 26.8152 64.8195 26.7276 64.5804C26.64 64.3413 26.511 64.1543 26.3406 64.0194C26.1701 63.8844 25.9606 63.8169 25.712 63.8169C25.4658 63.8169 25.2575 63.882 25.087 64.0123C24.9189 64.1425 24.7899 64.3271 24.6999 64.5662C24.61 64.8053 24.565 65.0871 24.565 65.4114ZM30.9251 60.8659V68.1387H29.4123V60.8659H30.9251ZM32.1369 68.1387V62.6841H33.6497V68.1387H32.1369ZM32.8968 61.981C32.6719 61.981 32.479 61.9064 32.318 61.7573C32.1594 61.6058 32.0801 61.4247 32.0801 61.214C32.0801 61.0056 32.1594 60.8269 32.318 60.6777C32.479 60.5262 32.6719 60.4505 32.8968 60.4505C33.1217 60.4505 33.3135 60.5262 33.4721 60.6777C33.6331 60.8269 33.7136 61.0056 33.7136 61.214C33.7136 61.4247 33.6331 61.6058 33.4721 61.7573C33.3135 61.9064 33.1217 61.981 32.8968 61.981ZM37.326 68.2452C36.7673 68.2452 36.2867 68.1268 35.8842 67.8901C35.4841 67.651 35.1764 67.3195 34.9609 66.8958C34.7479 66.472 34.6413 65.9843 34.6413 65.4327C34.6413 64.874 34.7491 64.3839 34.9645 63.9625C35.1823 63.5388 35.4912 63.2085 35.8913 62.9718C36.2914 62.7327 36.7673 62.6131 37.3189 62.6131C37.7947 62.6131 38.2114 62.6995 38.5689 62.8723C38.9264 63.0452 39.2093 63.2878 39.4176 63.6003C39.6259 63.9128 39.7408 64.2798 39.7621 64.7012H38.3345C38.2943 64.4289 38.1877 64.2099 38.0149 64.0442C37.8445 63.8761 37.6207 63.7921 37.3438 63.7921C37.1094 63.7921 36.9046 63.856 36.7294 63.9838C36.5566 64.1093 36.4216 64.2928 36.3246 64.5343C36.2275 64.7757 36.179 65.0681 36.179 65.4114C36.179 65.7594 36.2263 66.0553 36.321 66.2992C36.4181 66.543 36.5542 66.7289 36.7294 66.8567C36.9046 66.9846 37.1094 67.0485 37.3438 67.0485C37.5166 67.0485 37.6716 67.013 37.8089 66.9419C37.9486 66.8709 38.0634 66.7679 38.1534 66.633C38.2457 66.4957 38.3061 66.3311 38.3345 66.1394H39.7621C39.7384 66.556 39.6248 66.923 39.4212 67.2402C39.2199 67.5551 38.9418 67.8013 38.5866 67.9789C38.2315 68.1564 37.8113 68.2452 37.326 68.2452ZM42.286 68.2417C41.938 68.2417 41.6279 68.1813 41.3556 68.0605C41.0834 67.9374 40.868 67.7563 40.7093 67.5172C40.5531 67.2757 40.475 66.9751 40.475 66.6152C40.475 66.3122 40.5306 66.0577 40.6419 65.8517C40.7531 65.6458 40.9047 65.4801 41.0964 65.3546C41.2882 65.2291 41.506 65.1344 41.7498 65.0705C41.996 65.0066 42.2541 64.9616 42.524 64.9355C42.8412 64.9024 43.0969 64.8716 43.291 64.8432C43.4851 64.8124 43.626 64.7675 43.7136 64.7083C43.8012 64.6491 43.845 64.5615 43.845 64.4455V64.4242C43.845 64.1993 43.774 64.0253 43.6319 63.9022C43.4922 63.7791 43.2934 63.7175 43.0353 63.7175C42.7631 63.7175 42.5465 63.7779 42.3855 63.8986C42.2245 64.017 42.118 64.1661 42.0659 64.3461L40.6667 64.2324C40.7377 63.901 40.8774 63.6145 41.0858 63.373C41.2941 63.1292 41.5628 62.9422 41.8919 62.812C42.2233 62.6794 42.6068 62.6131 43.0424 62.6131C43.3455 62.6131 43.6355 62.6486 43.9125 62.7196C44.1918 62.7907 44.4392 62.9007 44.6547 63.0499C44.8725 63.199 45.0441 63.3908 45.1696 63.6252C45.295 63.8572 45.3578 64.1354 45.3578 64.4597V68.1387H43.9231V67.3823H43.8805C43.7929 67.5527 43.6757 67.7031 43.5289 67.8333C43.3822 67.9611 43.2058 68.0617 42.9998 68.1351C42.7939 68.2061 42.5559 68.2417 42.286 68.2417ZM42.7193 67.1976C42.9418 67.1976 43.1383 67.1538 43.3088 67.0662C43.4792 66.9763 43.613 66.8555 43.71 66.704C43.8071 66.5525 43.8556 66.3809 43.8556 66.1891V65.6103C43.8083 65.641 43.7432 65.6694 43.6603 65.6955C43.5798 65.7192 43.4887 65.7417 43.3869 65.763C43.2851 65.7819 43.1833 65.7997 43.0815 65.8162C42.9797 65.8304 42.8874 65.8435 42.8045 65.8553C42.627 65.8813 42.4719 65.9228 42.3393 65.9796C42.2067 66.0364 42.1038 66.1133 42.0304 66.2104C41.957 66.3051 41.9203 66.4235 41.9203 66.5655C41.9203 66.7715 41.9949 66.9289 42.144 67.0378C42.2955 67.1444 42.4873 67.1976 42.7193 67.1976ZM48.9959 68.2452C48.4372 68.2452 47.9566 68.1268 47.5542 67.8901C47.1541 67.651 46.8463 67.3195 46.6309 66.8958C46.4178 66.472 46.3113 65.9843 46.3113 65.4327C46.3113 64.874 46.419 64.3839 46.6344 63.9625C46.8522 63.5388 47.1612 63.2085 47.5613 62.9718C47.9614 62.7327 48.4372 62.6131 48.9888 62.6131C49.4647 62.6131 49.8813 62.6995 50.2388 62.8723C50.5963 63.0452 50.8792 63.2878 51.0875 63.6003C51.2959 63.9128 51.4107 64.2798 51.432 64.7012H50.0044C49.9642 64.4289 49.8577 64.2099 49.6848 64.0442C49.5144 63.8761 49.2907 63.7921 49.0137 63.7921C48.7793 63.7921 48.5745 63.856 48.3993 63.9838C48.2265 64.1093 48.0916 64.2928 47.9945 64.5343C47.8974 64.7757 47.8489 65.0681 47.8489 65.4114C47.8489 65.7594 47.8962 66.0553 47.9909 66.2992C48.088 66.543 48.2241 66.7289 48.3993 66.8567C48.5745 66.9846 48.7793 67.0485 49.0137 67.0485C49.1865 67.0485 49.3416 67.013 49.4789 66.9419C49.6185 66.8709 49.7334 66.7679 49.8233 66.633C49.9157 66.4957 49.976 66.3311 50.0044 66.1394H51.432C51.4083 66.556 51.2947 66.923 51.0911 67.2402C50.8899 67.5551 50.6117 67.8013 50.2566 67.9789C49.9015 68.1564 49.4812 68.2452 48.9959 68.2452ZM52.4006 68.1387V62.6841H53.9134V68.1387H52.4006ZM53.1605 61.981C52.9356 61.981 52.7427 61.9064 52.5817 61.7573C52.4231 61.6058 52.3438 61.4247 52.3438 61.214C52.3438 61.0056 52.4231 60.8269 52.5817 60.6777C52.7427 60.5262 52.9356 60.4505 53.1605 60.4505C53.3854 60.4505 53.5772 60.5262 53.7358 60.6777C53.8968 60.8269 53.9773 61.0056 53.9773 61.214C53.9773 61.4247 53.8968 61.6058 53.7358 61.7573C53.5772 61.9064 53.3854 61.981 53.1605 61.981ZM57.5897 68.2452C57.0381 68.2452 56.561 68.128 56.1586 67.8936C55.7585 67.6569 55.4495 67.3278 55.2317 66.9064C55.0139 66.4827 54.905 65.9914 54.905 65.4327C54.905 64.8693 55.0139 64.3768 55.2317 63.9554C55.4495 63.5317 55.7585 63.2026 56.1586 62.9682C56.561 62.7315 57.0381 62.6131 57.5897 62.6131C58.1413 62.6131 58.6171 62.7315 59.0172 62.9682C59.4197 63.2026 59.7298 63.5317 59.9476 63.9554C60.1654 64.3768 60.2743 64.8693 60.2743 65.4327C60.2743 65.9914 60.1654 66.4827 59.9476 66.9064C59.7298 67.3278 59.4197 67.6569 59.0172 67.8936C58.6171 68.128 58.1413 68.2452 57.5897 68.2452ZM57.5968 67.0733C57.8477 67.0733 58.0572 67.0023 58.2253 66.8603C58.3934 66.7158 58.5201 66.5194 58.6053 66.2708C58.6929 66.0222 58.7367 65.7393 58.7367 65.4221C58.7367 65.1048 58.6929 64.8219 58.6053 64.5733C58.5201 64.3248 58.3934 64.1283 58.2253 63.9838C58.0572 63.8394 57.8477 63.7672 57.5968 63.7672C57.3435 63.7672 57.1304 63.8394 56.9576 63.9838C56.7871 64.1283 56.6581 64.3248 56.5705 64.5733C56.4853 64.8219 56.4426 65.1048 56.4426 65.4221C56.4426 65.7393 56.4853 66.0222 56.5705 66.2708C56.6581 66.5194 56.7871 66.7158 56.9576 66.8603C57.1304 67.0023 57.3435 67.0733 57.5968 67.0733ZM62.7708 64.9853V68.1387H61.258V62.6841H62.6998V63.6465H62.7637C62.8844 63.3292 63.0868 63.0783 63.3709 62.8936C63.655 62.7066 63.9995 62.6131 64.4043 62.6131C64.7831 62.6131 65.1133 62.696 65.3951 62.8617C65.6768 63.0274 65.8958 63.2641 66.052 63.5719C66.2083 63.8773 66.2864 64.2419 66.2864 64.6657V68.1387H64.7736V64.9355C64.776 64.6017 64.6908 64.3413 64.5179 64.1543C64.3451 63.9649 64.1072 63.8702 63.8042 63.8702C63.6006 63.8702 63.4206 63.914 63.2644 64.0016C63.1105 64.0892 62.9898 64.217 62.9022 64.3851C62.8169 64.5508 62.7731 64.7509 62.7708 64.9853ZM69.9645 68.2452C69.4034 68.2452 68.9205 68.1316 68.5156 67.9043C68.1132 67.6747 67.803 67.3503 67.5852 66.9313C67.3674 66.5099 67.2585 66.0115 67.2585 65.4363C67.2585 64.8752 67.3674 64.3828 67.5852 63.959C67.803 63.5352 68.1096 63.205 68.505 62.9682C68.9027 62.7315 69.3691 62.6131 69.9041 62.6131C70.264 62.6131 70.599 62.6711 70.9091 62.7871C71.2216 62.9007 71.4938 63.0724 71.7259 63.302C71.9602 63.5317 72.1425 63.8205 72.2727 64.1685C72.4029 64.5141 72.468 64.919 72.468 65.383V65.7985H67.8622V64.861H71.044C71.044 64.6432 70.9967 64.4502 70.902 64.2821C70.8073 64.1141 70.6759 63.9827 70.5078 63.888C70.3421 63.7909 70.1491 63.7424 69.929 63.7424C69.6993 63.7424 69.4957 63.7956 69.3182 63.9022C69.143 64.0063 69.0057 64.1472 68.9062 64.3248C68.8068 64.4999 68.7559 64.6953 68.7536 64.9107V65.802C68.7536 66.0719 68.8033 66.3051 68.9027 66.5016C69.0045 66.6981 69.1477 66.8496 69.3324 66.9561C69.517 67.0627 69.736 67.1159 69.9893 67.1159C70.1574 67.1159 70.3113 67.0923 70.451 67.0449C70.5907 66.9976 70.7102 66.9266 70.8097 66.8319C70.9091 66.7372 70.9848 66.6212 71.0369 66.4838L72.4361 66.5762C72.3651 66.9123 72.2195 67.2059 71.9993 67.4569C71.7815 67.7054 71.4998 67.8996 71.1541 68.0392C70.8108 68.1766 70.4143 68.2452 69.9645 68.2452ZM77.9936 64.2395L76.6087 64.3248C76.585 64.2064 76.5341 64.0998 76.456 64.0051C76.3778 63.9081 76.2749 63.8311 76.147 63.7743C76.0215 63.7151 75.8712 63.6855 75.696 63.6855C75.4616 63.6855 75.264 63.7353 75.103 63.8347C74.942 63.9318 74.8615 64.062 74.8615 64.2253C74.8615 64.3555 74.9136 64.4656 75.0178 64.5556C75.1219 64.6455 75.3007 64.7177 75.554 64.7722L76.5412 64.9711C77.0715 65.08 77.4669 65.2551 77.7273 65.4966C77.9877 65.7381 78.1179 66.0553 78.1179 66.4483C78.1179 66.8058 78.0125 67.1195 77.8018 67.3894C77.5935 67.6593 77.3071 67.87 76.9425 68.0215C76.5803 68.1706 76.1624 68.2452 75.6889 68.2452C74.9669 68.2452 74.3916 68.0949 73.9631 67.7942C73.5369 67.4912 73.2872 67.0792 73.2138 66.5584L74.7017 66.4803C74.7467 66.7005 74.8556 66.8685 75.0284 66.9846C75.2012 67.0982 75.4226 67.155 75.6925 67.155C75.9576 67.155 76.1707 67.1041 76.3317 67.0023C76.495 66.8981 76.5779 66.7644 76.5803 66.601C76.5779 66.4637 76.5199 66.3513 76.4062 66.2637C76.2926 66.1737 76.1174 66.1051 75.8807 66.0577L74.9361 65.8695C74.4034 65.763 74.0069 65.5783 73.7464 65.3155C73.4884 65.0527 73.3594 64.7177 73.3594 64.3105C73.3594 63.9602 73.4541 63.6583 73.6435 63.405C73.8352 63.1517 74.1039 62.9564 74.4496 62.8191C74.7976 62.6818 75.2048 62.6131 75.6712 62.6131C76.3601 62.6131 76.9022 62.7587 77.2976 63.0499C77.6953 63.3411 77.9273 63.7376 77.9936 64.2395ZM15.6321 72.8659H17.5284L19.5312 77.7523H19.6165L21.6193 72.8659H23.5156V80.1387H22.0241V75.405H21.9638L20.0817 80.1032H19.0661L17.1839 75.3873H17.1236V80.1387H15.6321V72.8659ZM27.2186 80.2452C26.667 80.2452 26.1899 80.128 25.7875 79.8936C25.3874 79.6569 25.0784 79.3278 24.8606 78.9064C24.6428 78.4827 24.5339 77.9914 24.5339 77.4327C24.5339 76.8693 24.6428 76.3768 24.8606 75.9554C25.0784 75.5317 25.3874 75.2026 25.7875 74.9682C26.1899 74.7315 26.667 74.6131 27.2186 74.6131C27.7702 74.6131 28.246 74.7315 28.6461 74.9682C29.0486 75.2026 29.3587 75.5317 29.5765 75.9554C29.7943 76.3768 29.9032 76.8693 29.9032 77.4327C29.9032 77.9914 29.7943 78.4827 29.5765 78.9064C29.3587 79.3278 29.0486 79.6569 28.6461 79.8936C28.246 80.128 27.7702 80.2452 27.2186 80.2452ZM27.2257 79.0733C27.4766 79.0733 27.6861 79.0023 27.8542 78.8603C28.0223 78.7158 28.149 78.5194 28.2342 78.2708C28.3218 78.0222 28.3656 77.7393 28.3656 77.4221C28.3656 77.1048 28.3218 76.8219 28.2342 76.5733C28.149 76.3248 28.0223 76.1283 27.8542 75.9838C27.6861 75.8394 27.4766 75.7672 27.2257 75.7672C26.9724 75.7672 26.7593 75.8394 26.5865 75.9838C26.416 76.1283 26.287 76.3248 26.1994 76.5733C26.1142 76.8219 26.0716 77.1048 26.0716 77.4221C26.0716 77.7393 26.1142 78.0222 26.1994 78.2708C26.287 78.5194 26.416 78.7158 26.5865 78.8603C26.7593 79.0023 26.9724 79.0733 27.2257 79.0733ZM26.6752 73.981L27.4281 72.3652H28.8272L27.7441 73.981H26.6752ZM35.7963 74.6841L33.8894 80.1387H32.1848L30.2779 74.6841H31.8759L33.0087 78.5868H33.0655L34.1948 74.6841H35.7963ZM36.5705 80.1387V74.6841H38.0833V80.1387H36.5705ZM37.3304 73.981C37.1055 73.981 36.9126 73.9064 36.7516 73.7573C36.593 73.6058 36.5137 73.4247 36.5137 73.214C36.5137 73.0056 36.593 72.8269 36.7516 72.6777C36.9126 72.5262 37.1055 72.4505 37.3304 72.4505C37.5553 72.4505 37.7471 72.5262 37.9057 72.6777C38.0667 72.8269 38.1472 73.0056 38.1472 73.214C38.1472 73.4247 38.0667 73.6058 37.9057 73.7573C37.7471 73.9064 37.5553 73.981 37.3304 73.981ZM40.8079 72.8659V80.1387H39.2951V72.8659H40.8079ZM44.5055 80.2452C43.9444 80.2452 43.4615 80.1316 43.0566 79.9043C42.6542 79.6747 42.344 79.3503 42.1262 78.9313C41.9084 78.5099 41.7995 78.0115 41.7995 77.4363C41.7995 76.8752 41.9084 76.3828 42.1262 75.959C42.344 75.5352 42.6506 75.205 43.046 74.9682C43.4437 74.7315 43.9101 74.6131 44.4451 74.6131C44.805 74.6131 45.14 74.6711 45.4501 74.7871C45.7626 74.9007 46.0349 75.0724 46.2669 75.302C46.5012 75.5317 46.6835 75.8205 46.8137 76.1685C46.944 76.5141 47.0091 76.919 47.0091 77.383V77.7985H42.4032V76.861H45.585C45.585 76.6432 45.5377 76.4502 45.443 76.2821C45.3483 76.1141 45.2169 75.9827 45.0488 75.888C44.8831 75.7909 44.6902 75.7424 44.47 75.7424C44.2404 75.7424 44.0368 75.7956 43.8592 75.9022C43.684 76.0063 43.5467 76.1472 43.4473 76.3248C43.3478 76.4999 43.2969 76.6953 43.2946 76.9107V77.802C43.2946 78.0719 43.3443 78.3051 43.4437 78.5016C43.5455 78.6981 43.6887 78.8496 43.8734 78.9561C44.0581 79.0627 44.277 79.1159 44.5304 79.1159C44.6984 79.1159 44.8523 79.0923 44.992 79.0449C45.1317 78.9976 45.2512 78.9266 45.3507 78.8319C45.4501 78.7372 45.5259 78.6212 45.5779 78.4838L46.9771 78.5762C46.9061 78.9123 46.7605 79.2059 46.5403 79.4569C46.3225 79.7054 46.0408 79.8996 45.6951 80.0392C45.3519 80.1766 44.9553 80.2452 44.5055 80.2452ZM52.5346 76.2395L51.1497 76.3248C51.126 76.2064 51.0751 76.0998 50.997 76.0051C50.9189 75.9081 50.8159 75.8311 50.688 75.7743C50.5626 75.7151 50.4122 75.6855 50.237 75.6855C50.0027 75.6855 49.805 75.7353 49.644 75.8347C49.483 75.9318 49.4025 76.062 49.4025 76.2253C49.4025 76.3555 49.4546 76.4656 49.5588 76.5556C49.6629 76.6455 49.8417 76.7177 50.095 76.7722L51.0822 76.9711C51.6125 77.08 52.0079 77.2551 52.2683 77.4966C52.5287 77.7381 52.6589 78.0553 52.6589 78.4483C52.6589 78.8058 52.5536 79.1195 52.3429 79.3894C52.1345 79.6593 51.8481 79.87 51.4835 80.0215C51.1213 80.1706 50.7034 80.2452 50.2299 80.2452C49.5079 80.2452 48.9326 80.0949 48.5041 79.7942C48.0779 79.4912 47.8282 79.0792 47.7548 78.5584L49.2427 78.4803C49.2877 78.7005 49.3966 78.8685 49.5694 78.9846C49.7422 79.0982 49.9636 79.155 50.2335 79.155C50.4986 79.155 50.7117 79.1041 50.8727 79.0023C51.036 78.8981 51.1189 78.7644 51.1213 78.601C51.1189 78.4637 51.0609 78.3513 50.9473 78.2637C50.8336 78.1737 50.6584 78.1051 50.4217 78.0577L49.4771 77.8695C48.9444 77.763 48.5479 77.5783 48.2875 77.3155C48.0294 77.0527 47.9004 76.7177 47.9004 76.3105C47.9004 75.9602 47.9951 75.6583 48.1845 75.405C48.3762 75.1517 48.6449 74.9564 48.9906 74.8191C49.3386 74.6818 49.7458 74.6131 50.2122 74.6131C50.9011 74.6131 51.4432 74.7587 51.8386 75.0499C52.2363 75.3411 52.4683 75.7376 52.5346 76.2395Z" fill="white"/>
<path d="M66.3302 0.624023H97.4717C102.995 0.624023 107.472 5.10118 107.472 10.624V32.8946H95.3302C79.314 32.8946 66.3302 19.9109 66.3302 3.89461V0.624023Z" fill="#FFC278"/>
<path d="M88.9167 11.7502H97.0833M97.0833 11.7502L93 7.62012M97.0833 11.7502L93 15.8802" stroke="white" stroke-width="1.6" stroke-linecap="round" stroke-linejoin="round"/>
</svg>
